<svg width="1190" height="1432" viewBox="0 0 1190 1432" fill="none" xmlns="http://www.w3.org/2000/svg">
<g id="Man / Legs / 2">
<g id="Group 28">
<g id="Shoes">
<path id="Shoes_2" fill-rule="evenodd" clip-rule="evenodd" d="M639.551 1366.69L640.117 1317.8L577.348 1286.04L568.239 1425.82H785.704C748.703 1383.96 639.551 1366.69 639.551 1366.69ZM387.097 1368.6L387.661 1313.68L327.481 1355.93L317.83 1365.56L302.944 1425.82H451.784C433.071 1374.63 387.097 1368.6 387.097 1368.6Z" fill="#0D0B6D"/>
</g>
<g id="Legs">
<path id="Skin" fill-rule="evenodd" clip-rule="evenodd" d="M393.686 1313.68L330.919 1294.73L317.828 1365.56L387.097 1368.6L393.686 1313.68ZM640.117 1317.8L577.348 1298.85L572.29 1363.65L639.551 1366.69L640.117 1317.8Z" fill="#E576C6"/>
</g>
<g id="Pants">
<path id="Pants_2" d="M454.14 1290.62H463.993L457.968 1347.12H292.007L298.031 1290.62H309.012L432.583 366.001L510.22 366.001L699.051 366L683.37 1291.63H691.834V1346.11H525.875V1291.63H535.266L525.873 944.492L454.14 1290.62Z" fill="#2F2F3D"/>
</g>
<path id="Fill 15" opacity="0.200358" fill-rule="evenodd" clip-rule="evenodd" d="M523.094 976.583L592.245 528.935L529.364 1105.88L523.094 976.583Z" fill="black"/>
</g>
</g>
</svg>
