<svg width="1190" height="1432" viewBox="55 80 1190 1432" fill="none" xmlns="http://www.w3.org/2000/svg">
<g id="Man / Legs / 4">
<g id="Group 17">
<g id="Shoes">
<path id="Shoes_2" fill-rule="evenodd" clip-rule="evenodd" d="M651.756 1347.38L652.316 1299.16L590.298 1267.84L581.298 1405.7H796.165C759.605 1364.41 651.756 1347.38 651.756 1347.38ZM382.475 1349.26L383.035 1295.1L319.79 1292.09L314.035 1346.27L299.326 1405.7H446.39C427.9 1355.21 382.475 1349.26 382.475 1349.26Z" fill="#0D0B6D"/>
</g>
<g id="Legs skin">
<path id="Skin" fill-rule="evenodd" clip-rule="evenodd" d="M383.034 1295.1L321.016 1276.41L314.034 1346.27L382.476 1349.26L383.034 1295.1ZM652.315 1299.16L590.297 1280.47L585.299 1344.39L651.758 1347.38L652.315 1299.16Z" fill="#E576C6"/>
</g>
<g id="Pants">
<path id="Pants_2" d="M555.123 605.778L409.588 1326.99H298L431.473 374H695.461L686.274 1323.31L652.028 1323.8L586.83 1324.77H586.592L569.965 1325.01L555.123 605.778Z" fill="#2F2F3D"/>
</g>
<path id="Fill 15" opacity="0.200893" fill-rule="evenodd" clip-rule="evenodd" d="M555.523 600.434L580.627 488.858L561.738 827.124L555.523 600.434Z" fill="black"/>
</g>
</g>
</svg>
