<svg width="1190" height="1432" viewBox="55 80 1190 1432" fill="none" xmlns="http://www.w3.org/2000/svg">
<g id="Man / Legs / 6">
<g id="Group 23">
<g id="Shoes">
<path id="Shoes_2" fill-rule="evenodd" clip-rule="evenodd" d="M662.095 1369.67L662.662 1320.57L599.656 1288.67L590.512 1429.06H808.804C771.661 1387.01 662.095 1369.67 662.095 1369.67ZM382.473 1371.59L383.042 1316.43L341.965 1350.04L308.911 1368.54L298.001 1429.06H447.407C428.622 1377.64 382.473 1371.59 382.473 1371.59Z" fill="#0D0B6D"/>
</g>
<g id="Leg skin">
<path id="Skin" fill-rule="evenodd" clip-rule="evenodd" d="M383.042 1316.43L320.036 1297.4L308.909 1368.53L382.473 1371.59L383.042 1316.43ZM662.662 1320.57L599.656 1301.54L594.576 1366.62L662.096 1369.67L662.662 1320.57Z" fill="#E576C6"/>
</g>
<g id="Pants">
<path id="Pants_2" d="M671.692 1304.46L670.239 1350.04H587.13L588.587 1304.33C579.276 1300.58 572.624 1291.55 572.397 1280.88L559.019 598.24L414.47 1287.43C412.433 1297.12 405.278 1304.65 396.191 1307.43L390.757 1350.04H303.616L311.115 1302.99C303.859 1297.34 299.654 1288.04 301.1 1278.11L434.18 364.682L554.442 364.682L554.435 364.333H700.095L691.364 1279.61C691.243 1291.64 682.911 1301.71 671.692 1304.46Z" fill="#2F2F3D"/>
</g>
<path id="Fill 15" opacity="0.197824" fill-rule="evenodd" clip-rule="evenodd" d="M558.28 609.057L583.784 495.441L564.596 839.897L558.28 609.057Z" fill="black"/>
<g id="Pants line">
<path id="Pants line_2" d="M465.295 365.543L479.253 367.832L327.031 1298.68L313.032 1296.33L465.295 365.543Z" fill="#EFEFEF"/>
</g>
</g>
</g>
</svg>
