<svg width="780" height="682" viewBox="-50 0 700 682" fill="none" xmlns="http://www.w3.org/2000/svg">
<g id="Man / Body / 2">
<g id="Group 25">
<g id="Hands">
<path id="Mask" fill-rule="evenodd" clip-rule="evenodd" d="M496.327 481.083C496.327 481.083 469.389 484.377 464.261 496.101C449.595 529.641 479.985 589.599 479.985 589.599C479.985 589.599 467.109 581.961 464.547 588.641C463.405 591.615 460.821 615.367 509.063 616.967C514.185 617.137 526.507 607.005 526.507 607.005C526.507 607.005 517.523 623.687 531.279 626.965C531.279 626.965 553.449 594.663 553.789 587.475C554.127 580.287 547.011 543.903 543.165 536.555C539.317 529.207 496.327 481.083 496.327 481.083ZM132.014 539.59C127.344 526.166 123.2 519.046 123.2 519.046L52.8602 522.368C45.7164 542.165 44.943 548.963 43.1988 564.293C43.1201 564.985 43.0395 565.694 42.9562 566.422C41.3602 580.386 41.2502 594.424 46.6802 613.11C50.1682 625.116 53.8922 635.324 55.8322 634.894C60.7202 633.81 60.9042 627.692 60.9042 627.692L58.6022 616.324L57.5582 605.224C57.5582 605.224 74.9122 654.368 76.3822 654.096C81.5822 653.14 82.4102 644.526 82.4102 644.526C82.4102 644.526 87.8482 661.488 90.5842 660.874C97.5482 659.31 96.8882 651.454 96.8882 651.454C96.8882 651.454 99.0862 653.332 100.776 652.854C107.08 651.08 106.892 640.19 106.782 633.806C106.773 633.294 106.765 632.811 106.76 632.364C106.76 632.364 103.968 612.272 104.538 606.08C107.443 574.53 112.451 567.025 115.197 562.91C115.457 562.521 115.697 562.162 115.912 561.816C120.222 564.675 121.818 569.574 123.512 574.775C124.745 578.557 126.029 582.499 128.446 585.932C135.802 596.38 156.318 606.252 144.848 582.316C138.479 569.025 136.896 560.848 135.427 553.258C134.565 548.805 133.742 544.553 132.014 539.59Z" fill="#E576C6"/>
</g>
<path id="Stroke 4" opacity="0.150646" d="M489.837 524.411C489.837 524.411 496.607 549.279 519.839 557.027C527.963 559.737 525.933 591.721 545.845 587.895" stroke="black" stroke-width="3"/>
<g id="Shirt">
<path id="Shirt_2" fill-rule="evenodd" clip-rule="evenodd" d="M244.241 99.6602L253.195 62.0002L292.115 64.4202L318.875 97.5402L336.275 67.1402L348.695 67.9202L352.553 103.081C409.208 124.813 419.092 146.071 431.491 172.739C432.824 175.606 434.186 178.537 435.639 181.537C451.989 215.303 432.029 449.669 432.029 449.669L186.619 438.357C186.619 438.357 219.873 102.205 241.655 99.9208C242.515 99.8306 243.377 99.7437 244.241 99.6602Z" fill="#EFEFEF"/>
</g>
<path id="Stroke 8" d="M427.049 450.067L438.559 264.717" stroke="#12173A" stroke-width="5"/>
<g id="Coat">
<path id="Coat_2" fill-rule="evenodd" clip-rule="evenodd" d="M133.011 590.964L115.538 670.559L246.886 681.329C246.886 681.329 258.168 300.379 257.06 188.379C256.552 137.091 241.658 99.939 241.658 99.939C241.658 99.939 183.28 117.119 170.046 125.909C138.868 146.617 71.0978 245.819 59.0378 298.259C40.0978 380.579 42.0578 522.879 42.0578 522.879L141.538 518.179L170.198 363.539L174.57 403.125L138.429 566.852C139.673 570.934 140.709 574.016 141.538 576.098C145.689 586.528 148.067 592.6 147.566 594.867C147.101 596.974 145.058 598.241 140.047 595.672C138.719 594.991 136.373 593.421 133.011 590.964ZM439.358 518.2L452.898 546.438L539.938 497.998L468.938 318.998C468.938 318.998 450.468 180.356 439.338 161.844C417.814 126.05 352.978 103.258 352.978 103.258C352.978 103.258 352.998 103.278 352.998 103.298C353.643 104.957 354.162 114.562 355.325 136.092C356.112 150.646 357.193 170.649 358.806 197.33C362.374 256.332 396.218 679.8 396.218 679.8L443.038 674.258L439.358 518.2Z" fill="#CE3D29"/>
</g>
<g id="Lapel">
<path id="Shape" fill-rule="evenodd" clip-rule="evenodd" d="M196.326 216.447L255.396 341.947C255.396 341.947 257.136 203.895 256.332 170.681C255.766 147.307 241.658 99.9392 241.658 99.9392L218.208 119.367C203.322 131.699 199.492 152.963 209.138 169.715L209.448 170.255L204.696 174.563C193 185.165 189.604 202.163 196.326 216.447ZM352.979 103.259L369.481 340.759L412.545 223.863C418.801 206.881 413.765 187.797 399.941 176.113L398.107 174.563L398.929 170.321C402.021 154.379 396.051 138.031 383.415 127.829L352.979 103.259Z" fill="#2F2F3D"/>
</g>
<path id="Stroke 23" opacity="0.197498" d="M169.728 366.076L175.51 337.198L204.756 283.194" stroke="black" stroke-width="5"/>
</g>
</g>
</svg>
