<svg width="780" height="682" viewBox="0 0 780 682" fill="none" xmlns="http://www.w3.org/2000/svg">
<g id="Man / Body / 3">
<g id="Group 35">
<g id="Hands">
<path id="Hands_2" fill-rule="evenodd" clip-rule="evenodd" d="M494.504 481.653C494.504 481.653 467.566 484.949 462.438 496.673C447.772 530.213 478.162 590.171 478.162 590.171C478.162 590.171 465.286 582.533 462.724 589.213C461.582 592.187 458.998 615.939 507.24 617.539C512.362 617.709 524.684 607.575 524.684 607.575C524.684 607.575 515.7 624.259 529.456 627.535C529.456 627.535 551.626 595.235 551.966 588.047C552.304 580.859 545.188 544.475 541.342 537.127C537.494 529.779 494.504 481.653 494.504 481.653ZM121.058 523.045L112.312 506.345L63.0241 500.827C59.4681 506.327 52.7521 519.229 49.6721 527.765C43.7049 544.297 43.0548 551.238 42.0499 561.968C41.7971 564.667 41.522 567.605 41.1341 570.995C39.5381 584.959 39.4281 598.997 44.8561 617.681C48.3461 629.689 52.0701 639.895 54.0101 639.467C58.8961 638.383 59.0801 632.263 59.0801 632.263L56.7781 620.895L55.7341 609.797C55.7341 609.797 73.0901 658.941 74.5601 658.669C79.7601 657.711 80.5881 649.099 80.5881 649.099C80.5881 649.099 86.0241 666.059 88.7621 665.445C95.7261 663.881 95.0661 656.027 95.0661 656.027C95.0661 656.027 97.2641 657.903 98.9521 657.427C105.261 655.653 105.07 644.754 104.958 638.371C104.949 637.862 104.941 637.382 104.936 636.937C104.936 636.937 102.146 616.845 102.716 610.651C105.622 579.097 110.631 571.593 113.376 567.48C113.636 567.091 113.875 566.733 114.09 566.387C118.4 569.247 119.996 574.147 121.69 579.348C122.922 583.13 124.207 587.072 126.624 590.505C133.978 600.953 154.496 610.823 143.026 586.887C136.655 573.595 135.072 565.418 133.603 557.826C132.741 553.374 131.918 549.124 130.192 544.161C125.52 530.737 121.058 523.045 121.058 523.045Z" fill="#E576C6"/>
</g>
<path id="Stroke 3" opacity="0.147531" d="M488.014 524.984C488.014 524.984 494.782 549.85 518.016 557.6C526.14 560.31 524.11 592.292 544.022 588.468" stroke="black" stroke-width="3"/>
<g id="Shirt">
<path id="Shape" fill-rule="evenodd" clip-rule="evenodd" d="M230.772 101.59L242.225 62.0002L299.425 65.5602L319.245 98.1002L339.065 68.0202L353.325 68.9002L358.121 106.602C360.688 107.657 363.137 108.713 365.486 109.768C368.726 111.228 371.766 112.668 374.626 114.128L374.786 114.208C410.668 132.413 419.285 150.967 429.667 173.32L429.668 173.322C430.998 176.186 432.357 179.112 433.806 182.108C450.166 215.866 467.106 319.568 467.106 319.568L538.106 498.568L451.066 547.008L429.666 505.568L430.206 450.248H303.186L289.106 450.228H164.226L162.366 382.108L139.706 518.748L40.2261 523.446C40.2261 523.446 38.2661 381.148 57.2061 298.826C69.2661 246.388 128.186 148.946 183.986 115.446C192.906 110.088 204.746 106.326 217.966 103.728C222.118 102.901 226.404 102.193 230.772 101.59ZM305.555 464.396C305.555 468.928 301.883 472.6 297.351 472.6C292.819 472.6 289.145 468.928 289.145 464.396C289.145 459.864 292.819 456.19 297.351 456.19C301.883 456.19 305.555 459.864 305.555 464.396ZM387.604 473.057C392.138 473.057 395.81 469.385 395.81 464.853C395.81 460.319 392.138 456.647 387.604 456.647C383.074 456.647 379.4 460.319 379.4 464.853C379.4 469.385 383.074 473.057 387.604 473.057Z" fill="#FCBDA4"/>
</g>
<path id="Stroke 9" opacity="0.197266" d="M162.796 397.501L181.106 301.903L226.388 225.185" stroke="black" stroke-width="5"/>
<path id="Stroke 11" opacity="0.195754" d="M426.207 450.64L434.857 311.344" stroke="black" stroke-width="5"/>
<g id="Shirt shadow">
<path id="Shirt shadow_2" fill-rule="evenodd" clip-rule="evenodd" d="M286.734 73.6036L271.248 123.206L312.816 104.708L286.734 73.6036ZM348.506 77.5832L323.564 104.223L356.94 123.815L348.506 77.5832Z" fill="#EA847A"/>
</g>
<path id="Fill 19" opacity="0.198451" fill-rule="evenodd" clip-rule="evenodd" d="M129.555 502.74C129.555 507.158 125.973 510.74 121.555 510.74C117.137 510.74 113.555 507.158 113.555 502.74C113.555 498.322 117.137 494.74 121.555 494.74C125.973 494.74 129.555 498.322 129.555 502.74Z" fill="black"/>
<path id="Fill 21" opacity="0.199033" fill-rule="evenodd" clip-rule="evenodd" d="M524.018 492.277C524.018 496.697 520.436 500.277 516.018 500.277C511.6 500.277 508.018 496.697 508.018 492.277C508.018 487.859 511.6 484.277 516.018 484.277C520.436 484.277 524.018 487.859 524.018 492.277Z" fill="black"/>
<path id="Stroke 23" opacity="0.202567" d="M40.1775 480.277L146.437 475.561" stroke="black" stroke-width="4"/>
<path id="Stroke 25" opacity="0.198684" d="M430.207 507.457L521.685 457.151" stroke="black" stroke-width="4"/>
<path id="Fill 27" opacity="0.197661" fill-rule="evenodd" clip-rule="evenodd" d="M303.186 450.248L289.106 450.228C288.286 279.688 260.346 165.908 217.966 103.728V103.708L232.246 100.388C232.466 100.688 232.686 100.988 232.886 101.308C276.166 162.108 304.806 275.308 303.186 450.248Z" fill="black"/>
<path id="Fill 29" opacity="0.196777" fill-rule="evenodd" clip-rule="evenodd" d="M398.106 450.248H383.766C403.886 286.208 391.166 172.708 358.086 106.588C358.026 106.428 357.946 106.288 357.866 106.128L365.486 109.768L374.626 114.128L374.786 114.208C409.346 178.668 421.006 282.628 398.106 450.248Z" fill="black"/>
</g>
</g>
</svg>
