<svg width="780" height="682" viewBox="0 0 780 682" fill="none" xmlns="http://www.w3.org/2000/svg">
<g id="Man / Body / 4">
<g id="Group 17">
<g id="Hands">
<path id="Hands_2" fill-rule="evenodd" clip-rule="evenodd" d="M494.328 481.655C494.328 481.655 467.388 484.947 462.262 496.673C447.594 530.211 477.986 590.171 477.986 590.171C477.986 590.171 465.11 582.531 462.548 589.213C461.404 592.185 458.82 615.939 507.062 617.539C512.186 617.709 524.508 607.577 524.508 607.577C524.508 607.577 515.524 624.257 529.28 627.535C529.28 627.535 551.45 595.235 551.79 588.047C552.128 580.859 545.012 544.475 541.164 537.127C537.318 529.779 494.328 481.655 494.328 481.655ZM120.881 523.046L112.135 506.346L62.8469 500.828C59.2889 506.328 52.5769 519.228 49.4949 527.764C43.5275 544.298 42.8775 551.238 41.8726 561.969C41.6198 564.667 41.3447 567.605 40.9569 570.996C39.3609 584.958 39.2509 598.998 44.6789 617.682C48.1689 629.688 51.8929 639.896 53.8329 639.466C58.7189 638.384 58.9049 632.264 58.9049 632.264L56.6009 620.896L55.5569 609.796C55.5569 609.796 72.9129 658.94 74.3829 658.67C79.5829 657.712 80.4129 649.098 80.4129 649.098C80.4129 649.098 85.8469 666.06 88.5869 665.446C95.5489 663.882 94.8889 656.026 94.8889 656.026C94.8889 656.026 97.0869 657.902 98.7749 657.428C105.084 655.652 104.893 644.758 104.781 638.374C104.772 637.864 104.763 637.382 104.759 636.936C104.759 636.936 101.969 616.844 102.539 610.652C105.444 579.097 110.454 571.593 113.199 567.48C113.458 567.092 113.698 566.733 113.913 566.388C118.222 569.248 119.818 574.148 121.513 579.349C122.745 583.131 124.028 587.073 126.445 590.506C133.803 600.954 154.319 610.824 142.849 586.888C136.48 573.595 134.896 565.418 133.426 557.827C132.564 553.375 131.741 549.125 130.015 544.162C125.343 530.738 120.881 523.046 120.881 523.046Z" fill="#E576C6"/>
</g>
<path id="Stroke 4" opacity="0.145089" d="M487.836 524.984C487.836 524.984 494.606 549.85 517.84 557.6C525.962 560.31 523.934 592.294 543.846 588.468" stroke="black" stroke-width="3"/>
<g id="Sweater">
<path id="Sweater_2" d="M239.658 100.492L242.049 62.001L353.147 68.899L350.979 103.818C413.325 127.829 418.711 151.281 433.639 182.11C449.987 215.876 466.937 319.572 466.937 319.572L537.937 498.572L450.897 547.012L429.493 505.558L430.029 450.24L164.059 450.232L162.199 382.112L139.539 518.752L40.0594 523.452C40.0594 523.452 38.0894 381.148 57.0314 298.826C69.0894 246.388 128.009 148.95 183.801 115.444C197.425 107.261 217.876 102.778 239.658 100.492Z" fill="#72A065"/>
</g>
<path id="Stroke 11" opacity="0.203544" d="M162.619 397.5L180.927 301.904L226.211 225.186" stroke="black" stroke-width="5"/>
<path id="Stroke 13" opacity="0.1988" d="M426.029 450.64L434.679 311.344" stroke="black" stroke-width="5"/>
</g>
</g>
</svg>
