<svg width="780" height="682" viewBox="0 0 780 682" fill="none" xmlns="http://www.w3.org/2000/svg">
<g id="Man / Body / 5">
<g id="Group 36">
<g id="Skin color">
<path id="Mask" fill-rule="evenodd" clip-rule="evenodd" d="M236.816 85.0576C241.436 93.1776 261.696 123.198 309.716 126.038C356.096 128.758 352.656 104.058 350.236 95.7976C349.153 95.4992 348.066 95.1966 346.972 94.8919C336.773 92.052 325.917 89.0293 311.052 87.4796C270.468 83.2516 267.284 82.9416 236.816 85.0576ZM604.433 216.016C582.36 259.612 504.876 402.723 449.637 379.897C408.279 362.805 358.767 221.107 358.767 221.107L439.249 172.927L475.413 270.303L549.256 189.609C546.749 173.619 544.74 152.717 549.739 145.348C558.249 132.806 601.305 94.1642 601.305 94.1642L609.144 159.636L610.513 154.117C610.512 153.81 610.586 153.477 610.741 153.117L610.755 153.086C610.765 153.062 610.776 153.038 610.787 153.013L613.957 140.237C612.626 139.562 612.082 138.599 612.657 137.267C613.124 136.185 614.142 135 615.565 133.754L626.387 90.1338C626.387 90.1338 629.939 91.7228 635.145 94.1036C643.52 92.3664 673.847 113.105 674.307 113.42L674.313 113.424C680.489 117.436 665.801 183.746 653.871 196.064C645.384 204.827 618.974 212.383 604.433 216.016ZM111.372 511.7L116.302 521.114C116.302 521.114 120.764 528.806 125.436 542.232C127.162 547.194 127.985 551.444 128.847 555.896C130.317 563.487 131.901 571.664 138.27 584.956C149.74 608.892 129.224 599.022 121.868 588.574C119.451 585.14 118.166 581.198 116.934 577.416C115.24 572.215 113.644 567.316 109.334 564.456C109.118 564.802 108.879 565.161 108.619 565.55C105.873 569.665 100.865 577.17 97.96 608.72C97.39 614.914 100.182 635.006 100.182 635.006C100.186 635.454 100.195 635.938 100.204 636.451C100.314 642.835 100.503 653.722 94.196 655.496C92.508 655.972 90.31 654.094 90.31 654.094C90.31 654.094 90.97 661.95 84.008 663.514C81.27 664.128 75.832 647.166 75.832 647.166C75.832 647.166 75.004 655.78 69.804 656.738C68.334 657.008 50.978 607.864 50.978 607.864L52.022 618.964L54.326 630.332C54.326 630.332 54.14 636.452 49.254 637.534C47.314 637.964 43.59 627.758 40.1 615.75C34.672 597.066 34.782 583.026 36.38 569.064C36.767 565.677 37.0417 562.742 37.2941 560.046C38.2989 549.311 38.9485 542.371 44.916 525.834C45.8088 523.359 47.0072 520.518 48.3455 517.596C44.2491 482.026 32.7056 377.908 34.1204 345.944C35.8344 307.174 76.6704 221.108 76.6704 221.108L159.576 267.73L113.88 351.482L111.372 511.7Z" fill="#E576C6"/>
</g>
<g id="T-Shirt">
<path id="T-Shirt_2" fill-rule="evenodd" clip-rule="evenodd" d="M157.076 440.038H423.056L432.802 274.895L479.485 247.525L446.777 171.887L446.49 171.943C445.127 169.195 443.632 166.341 441.996 163.378C421.698 126.598 386.976 105.858 350.236 95.7976C349.643 95.6341 349.402 95.5179 349.374 95.5565C349.303 95.6536 350.578 96.7319 350.943 100.505C351.452 105.777 349.797 112.933 348.055 115.109C343.949 120.239 337.745 123.151 335.249 123.836C332.752 124.521 330.774 124.919 328.567 125.361C327.019 125.67 318.218 126.325 316.698 126.246C304.175 125.589 298.035 125.006 290.149 123.122C287.358 122.455 284.469 121.694 281.044 120.245C280.401 119.973 279.698 119.682 278.944 119.37C275.242 117.84 270.312 115.802 265.305 112.988C260.011 110.012 254.615 106.087 250.709 102.078C250.331 101.691 249.964 101.314 249.607 100.948C245.505 96.7453 242.707 93.8782 240.769 91.0028C239.457 89.0569 238.962 88.41 238.672 88.0304C238.495 87.8002 238.394 87.6682 238.232 87.4044C237.802 86.7056 237.432 86.0897 237.326 85.6764C237.212 85.2315 237.62 85.0424 237.605 84.9973C237.595 84.9686 237.413 84.9983 236.816 85.0576C218.096 86.9176 197.976 91.778 176.036 102.078C108.176 133.918 68.5156 213.918 68.5156 213.918L152.616 277.178L157.076 440.038Z" fill="#5E93D1"/>
</g>
<path id="Stroke 16" opacity="0.200521" d="M152.612 277.169L173.946 291.691L225.228 231.795" stroke="black" stroke-width="5"/>
<path id="Phone" d="M639.667 171.294L635.952 189.58H575.774L604.16 43.9996H664.338C662.779 51.9995 659.105 70.8418 653.317 100.526L641.483 95.0249L637.798 94.0003L634.897 94.1636L633.639 95.0249V98.562L646.503 117.12L636.662 121.42L621.522 129.387L617.147 132.426L615.453 134L614.069 135.244L613.187 136.312L612.657 137.267L612.429 138.507L612.657 139.056L612.92 139.478L613.303 139.859L618.265 141.618L629.586 138.507H640.774L625.84 141.618L616 147.523L612.657 150.685L610.767 153.008V155.134L614.069 156.624L634.897 154.226L628 157.989L623.43 160.832L619.24 163L616 167.193V169.263L617.147 170.478L620.056 172.03H624.492H633.429L639.667 171.294Z" fill="#5E93D1"/>
<path id="Fill 23" fill-rule="evenodd" clip-rule="evenodd" d="M575.767 189.58H565.809L594.195 43.9996H604.151L575.767 189.58Z" fill="#020101"/>
<path id="Fill 34" fill-rule="evenodd" clip-rule="evenodd" d="M614.515 60.9028C613.683 65.1548 611.217 68.2528 609.007 67.8188C606.799 67.3868 605.681 63.5888 606.513 59.3368C607.345 55.0828 609.811 51.9868 612.021 52.4188C614.231 52.8528 615.347 56.6508 614.515 60.9028Z" fill="#020101"/>
</g>
</g>
</svg>
