<svg width="780" height="682" viewBox="0 0 780 682" fill="none" xmlns="http://www.w3.org/2000/svg">
<g id="Man / Body / 6">
<g id="Group 18">
<g id="Skin color">
<path id="Skin" fill-rule="evenodd" clip-rule="evenodd" d="M634.165 126.103L633.165 108.743C633.165 108.743 633.185 96.6628 634.745 83.6228C635.136 80.3513 635.996 76.93 636.914 73.2764C639.655 62.3672 642.917 49.3875 635.785 32.1428C626.265 9.14279 649.025 25.0228 654.065 35.9628C656.012 40.1913 656.58 46.5826 657.142 52.9217C657.793 60.2545 658.438 67.5177 661.205 71.2828C665.565 68.9028 668.465 65.8028 668.465 65.8028L717.525 2.16279C719.105 0.0227897 722.025 -0.61721 724.365 0.64279L727.005 2.08279C729.785 3.60279 730.665 7.16279 728.885 9.76279C725.482 14.758 719.541 23.1838 713.332 31.991L713.331 31.992L713.327 31.9979C702.06 47.9785 689.909 65.212 690.425 65.4828L691.725 67.0628L749.345 6.30279C751.145 4.28279 754.165 3.92279 756.385 5.46279L759.845 7.86279C762.365 9.60279 762.905 13.0828 761.025 15.4828C754.881 23.4177 739.671 40.6027 727.008 54.909L727.007 54.9106C716.052 67.2875 707.005 77.5094 707.385 77.7228L709.105 79.3828L762.745 32.0028C764.645 29.8828 767.885 29.6428 770.085 31.4228L772.705 33.5628C775.005 35.4228 775.345 38.8028 773.465 41.0828L722.805 88.7228L724.265 91.0228L768.245 60.1228C770.265 58.3228 773.305 58.3228 775.345 60.1028L776.565 61.2028C778.725 63.1228 778.965 66.4228 777.085 68.6428C774.091 72.1855 768.166 76.8394 761.102 82.3872C752.973 88.7719 743.336 96.3408 734.925 104.763C730.293 109.403 726.557 113.951 722.772 118.558C716.589 126.085 710.275 133.772 699.705 142.283C693.397 147.382 687.688 150.347 682.254 153.169C681.486 153.568 680.723 153.964 679.965 154.363L634.165 126.103ZM238.746 86.2728C238.746 86.2728 272.64 86.2068 297.102 86.1248C321.562 86.0408 352.322 96.3828 352.322 96.3828C352.322 96.3828 368.328 132.535 312.728 129.261C257.128 125.983 238.746 86.2728 238.746 86.2728ZM53.3601 232.568C53.3601 232.568 -0.897876 314.452 0.332124 359.99C1.78412 413.682 172.474 545.61 172.474 545.61L216.71 509.382L109.254 358.76L148.332 275.068L53.3601 232.568Z" fill="#E576C6"/>
</g>
<g id="Sweater color">
<path id="Sweater" d="M203.857 443.727L230.281 479.375L150.691 549.119C150.691 549.119 4.63657 441.499 0.126568 357.119C-2.74543 303.375 44.0246 226.657 44.0246 226.657C44.0246 226.657 102.729 132.335 170.589 100.503C184.515 93.9699 218.278 88.5208 238.746 86.2728C245.02 85.5837 241.269 88.0412 243.423 92.2006C245.673 96.5459 252.522 102.985 257.261 107.797C267.123 117.814 286.56 125.399 297 126.952C304.956 128.135 320.333 129.971 327.729 128.972C335.126 127.973 343.168 124.616 345.317 122.622C347.467 120.628 350.664 118.132 352.322 114.289C353.981 110.445 353.896 111.546 353.896 108C353.896 104.454 353.714 104.979 353.369 103.291C353.024 101.604 353.024 100.589 352.82 99.717C351.92 95.8582 352.322 96.3828 352.322 96.3828C392.381 108.546 412.673 113.048 427.266 130.742L538.794 209.426L615.102 109.324L713.562 175.784C713.562 175.784 626.384 339.066 563.204 357.118C512.31 371.66 460.752 326.436 442.624 308.298L464.163 418.217C467.615 437.195 451.085 444.377 436.357 443.705L203.857 443.727Z" fill="#72A065"/>
</g>
<path id="Fill 9" opacity="0.201242" fill-rule="evenodd" clip-rule="evenodd" d="M442.286 308.364L428.956 255.406L464.948 327.78L442.286 308.364Z" fill="black"/>
<path id="Stroke 16" opacity="0.200591" d="M193.973 430.964L131.819 342.348L206.897 227.886" stroke="black" stroke-width="5"/>
</g>
</g>
</svg>
