<svg width="780" height="682" viewBox="-50 0 700 682" fill="none" xmlns="http://www.w3.org/2000/svg">
<g id="Man / Body / 7">
<g id="Group 29">
<g id="T-shirt">
<path id="T-Shirt" d="M470.747 258.43L432.207 279.01L422.667 440.43H156.689L152.227 277.57L68.127 214.31C68.127 214.31 107.789 134.31 175.647 102.47C193.327 94.19 215.567 89.79 237.789 87.69C282.347 83.47 326.767 88.37 333.987 89.25L335.007 89.37C336.267 89.75 337.529 90.13 338.747 90.51C338.767 90.51 338.789 90.53 338.807 90.53C342.407 91.65 345.807 92.73 349.047 93.79C394.067 108.61 408.307 120.61 433.529 156.13C457.507 189.89 470.747 258.43 470.747 258.43Z" fill="#FCBDA4"/>
</g>
<path id="Stroke 6" opacity="0.200219" d="M152.228 277.564L173.56 292.086L224.844 232.188" stroke="black" stroke-width="5"/>
<path id="Fill 16" fill-rule="evenodd" clip-rule="evenodd" d="M362.087 393.29C362.087 393.29 370.487 395.43 370.647 400.71C370.647 402.21 319.467 411.89 319.467 411.89L330.609 412.55L342.189 411.99C342.189 411.99 348.209 413.11 348.547 418.11C348.667 420.09 338.007 422.21 325.609 423.83C306.327 426.37 292.467 424.13 278.907 420.43C277.767 420.11 276.667 419.83 275.609 419.55L286.629 348.69C290.327 352.07 297.327 358.07 327.449 365.59C333.487 367.09 353.767 367.37 353.767 367.37C359.727 368.23 372.247 369.39 373.109 376.41C373.327 378.15 371.147 380.03 371.147 380.03C371.147 380.03 379.007 380.57 379.487 387.69C379.689 390.49 362.087 393.29 362.087 393.29Z" fill="#18181C"/>
<path id="Fill 18" fill-rule="evenodd" clip-rule="evenodd" d="M449.317 491.97H263.255L304.981 235.15H491.045L449.317 491.97Z" fill="#18181C"/>
<path id="Fill 20" fill-rule="evenodd" clip-rule="evenodd" d="M459.317 491.97H273.255L314.981 235.15H501.045L459.317 491.97Z" fill="#5E93D1"/>
<g id="Skin color">
<path id="Skin" fill-rule="evenodd" clip-rule="evenodd" d="M237.789 87.69C244.347 98.03 265.007 123.81 309.347 126.43C362.307 129.53 350.289 96.89 349.049 93.79C348.969 93.63 348.927 93.55 348.927 93.55C348.927 93.55 344.987 92.23 338.807 90.53C338.798 90.53 338.788 90.5253 338.778 90.5204C338.768 90.5153 338.757 90.51 338.747 90.51C337.289 90.11 335.689 89.69 333.987 89.25C326.767 88.37 282.347 83.47 237.789 87.69ZM230.733 338.566L243.647 334.15C243.647 334.15 251.927 330.91 265.907 328.33C271.075 327.377 275.404 327.206 279.938 327.028H279.938H279.939C283.109 326.903 286.38 326.774 290.109 326.37L287.029 346.15C286.449 346.57 285.927 347.07 285.427 347.61C285.709 347.848 285.993 348.108 286.3 348.39C286.407 348.488 286.516 348.588 286.629 348.69C290.327 352.07 297.327 358.07 327.449 365.59C333.487 367.09 353.767 367.37 353.767 367.37C354.208 367.434 354.685 367.499 355.19 367.569L355.195 367.569C361.521 368.435 372.311 369.911 373.109 376.41C373.327 378.15 371.147 380.03 371.147 380.03C371.147 380.03 379.007 380.57 379.487 387.69C379.689 390.49 362.087 393.29 362.087 393.29C362.087 393.29 370.487 395.43 370.647 400.71C370.647 402.21 319.467 411.89 319.467 411.89L330.609 412.55L342.189 411.99C342.189 411.99 348.209 413.11 348.547 418.11C348.667 420.09 338.007 422.21 325.609 423.83C306.327 426.37 292.467 424.13 278.907 420.43C278.076 420.197 277.267 419.985 276.479 419.779L276.453 419.772C276.169 419.698 275.887 419.624 275.609 419.55C273.6 419.024 271.752 418.559 270.006 418.12C259.614 415.506 252.843 413.804 237.467 405.43C235.805 404.524 233.978 403.433 232.084 402.232C185.99 406.608 46.2812 417.367 32.2776 388.586C4.58755 331.662 77.4656 221.502 77.4656 221.502L158.136 277.918L132.5 321.466L230.733 338.566ZM416 483.15H458.84L468.45 424L488.147 508.156C500.306 522.103 514.342 538.567 516.464 542.621C520.31 549.969 527.428 586.353 527.088 593.541C526.748 600.729 504.578 633.029 504.578 633.029C490.822 629.751 499.806 613.071 499.806 613.071C499.806 613.071 487.486 623.203 482.362 623.033C434.118 621.433 436.704 597.679 437.846 594.707C440.408 588.025 453.284 595.665 453.284 595.665C453.284 595.665 430.92 551.542 433.82 517.825C428.811 508.363 422.647 496.486 416 483.15Z" fill="#E576C6"/>
</g>
<path id="Stroke 11" opacity="0.199382" d="M463.614 539.298C463.614 539.298 470.384 564.164 493.616 571.914C501.74 574.624 499.71 606.608 519.622 602.782" stroke="black" stroke-width="3"/>
<path id="Fill 27" fill-rule="evenodd" clip-rule="evenodd" d="M332.356 255.868C331.524 260.12 329.058 263.218 326.848 262.784C324.64 262.352 323.522 258.554 324.354 254.302C325.186 250.05 327.652 246.952 329.862 247.386C332.072 247.818 333.188 251.616 332.356 255.868Z" fill="#020101"/>
</g>
</g>
</svg>
