<svg width="780" height="682" viewBox="-50 0 700 682" fill="none" xmlns="http://www.w3.org/2000/svg">
<g id="Man / Body / 8">
<g id="Group 32">
<g id="Hoody">
<path id="Hoody_2" fill-rule="evenodd" clip-rule="evenodd" d="M16.3198 308.276C20.7844 368.509 71.6501 398.273 111.365 412.417L108.262 429.034C103.434 454.892 124.958 478.538 153.328 478.538H413.022C440.874 478.538 462.258 455.706 458.29 430.206L455.726 413.734C496.791 400.254 553.706 372.233 552.277 320.699C550.067 241.031 462.802 166.083 416.401 131.766C399.61 113.584 375.522 106.379 340.9 96.023C336.981 94.8508 332.927 93.6382 328.734 92.3648C328.734 92.3648 217.328 74.2048 160.918 100.667C146.125 107.606 133.953 117.515 123.963 128.768C78.0019 165.999 10.798 233.759 16.3198 308.276Z" fill="#1E9DBC"/>
</g>
<path id="Shape" opacity="0.199009" d="M420.299 255.833L415.782 257.977L418.684 264.091L423.676 259.52L420.299 255.833ZM389.8 191.586L394.317 189.442L392.172 184.925L387.655 187.069L389.8 191.586ZM380.766 195.874L378.622 191.357L374.105 193.502L376.249 198.018L380.766 195.874ZM414.168 266.236L418.684 264.091V264.091L414.168 266.236ZM417.07 272.35L412.553 274.494L415.456 280.608L420.447 276.037L417.07 272.35ZM422.061 267.779L418.684 264.091L422.061 267.779ZM430.783 259.791L434.16 263.479L437.847 260.102L434.47 256.414L430.783 259.791ZM424.029 252.417L427.716 249.04L424.339 245.352L420.652 248.729L424.029 252.417ZM423.201 261.947L418.684 264.091L423.201 261.947ZM420.299 255.833L424.816 253.689L421.913 247.574L416.922 252.146L420.299 255.833ZM423.558 262.698L425.702 267.215L430.219 265.07L428.075 260.554L423.558 262.698ZM419.272 264.732L417.127 260.216L411.013 263.118L415.584 268.109L419.272 264.732ZM422.061 267.779L425.438 271.466L429.126 268.089L425.749 264.402L422.061 267.779ZM388.66 298.369L384.972 301.746L388.349 305.433L392.037 302.056L388.66 298.369ZM381.906 290.995L378.529 287.307L374.842 290.684L378.219 294.371L381.906 290.995ZM415.307 260.404L411.931 256.717L415.307 260.404ZM178.647 258.684L183.127 260.903L178.647 258.684ZM218.354 178.537L222.834 180.756L225.054 176.276L220.574 174.056L218.354 178.537ZM176.42 263.178L174.186 267.652L178.674 269.893L180.9 265.398L176.42 263.178ZM171.932 260.937L169.698 265.41H169.698L171.932 260.937ZM149.454 249.711L144.981 247.477L142.747 251.95L147.22 254.184L149.454 249.711ZM153.922 240.765L156.156 236.291L151.683 234.057L149.449 238.531L153.922 240.765ZM171.913 249.75L169.679 254.223L174.166 256.464L176.393 251.969L171.913 249.75ZM209.393 174.097L211.613 169.617L207.133 167.397L204.913 171.878L209.393 174.097ZM176.4 251.991L174.166 256.464L176.4 251.991ZM171.913 249.75L174.147 245.277L169.659 243.035L167.433 247.53L171.913 249.75ZM252.924 290.209L257.397 292.443L259.631 287.969L255.158 285.735L252.924 290.209ZM248.456 299.155L246.222 303.628L250.695 305.862L252.929 301.389L248.456 299.155ZM171.932 260.937L167.459 258.703L165.225 263.176L169.698 265.41L171.932 260.937ZM172.143 260.517L176.616 262.751L178.857 258.263L174.362 256.036L172.143 260.517ZM167.675 258.303L163.195 256.084L160.975 260.564L165.456 262.784L167.675 258.303ZM169.686 254.244L174.166 256.464L169.686 254.244ZM424.816 253.689L394.317 189.442L385.283 193.73L415.782 257.977L424.816 253.689ZM387.655 187.069L378.622 191.357L382.91 200.391L391.944 196.103L387.655 187.069ZM376.249 198.018L409.651 268.38L418.684 264.091L385.283 193.73L376.249 198.018ZM409.651 268.38L412.553 274.494L421.587 270.206L418.684 264.091L409.651 268.38ZM420.447 276.037L425.438 271.466L418.684 264.091L413.693 268.663L420.447 276.037ZM425.438 271.466L434.16 263.479L427.406 256.104L418.684 264.091L425.438 271.466ZM434.47 256.414L427.716 249.04L420.342 255.794L427.095 263.168L434.47 256.414ZM420.652 248.729L416.922 252.146L423.676 259.52L427.406 256.104L420.652 248.729ZM427.718 259.803L424.816 253.689L415.782 257.977L418.684 264.091L427.718 259.803ZM428.075 260.554L427.718 259.803L418.684 264.091L419.041 264.842L428.075 260.554ZM421.416 269.249L425.702 267.215L421.413 258.181L417.127 260.216L421.416 269.249ZM425.749 264.402L422.959 261.355L415.584 268.109L418.374 271.156L425.749 264.402ZM392.037 302.056L425.438 271.466L418.684 264.091L385.283 294.682L392.037 302.056ZM378.219 294.371L384.972 301.746L392.347 294.992L385.593 287.618L378.219 294.371ZM411.931 256.717L378.529 287.307L385.283 294.682L418.684 264.091L411.931 256.717ZM416.922 252.146L411.931 256.717L418.684 264.091L423.676 259.52L416.922 252.146ZM183.127 260.903L222.834 180.756L213.874 176.317L174.166 256.464L183.127 260.903ZM180.9 265.398L183.127 260.903L174.166 256.464L171.94 260.959L180.9 265.398ZM169.698 265.41L174.186 267.652L178.654 258.705L174.166 256.464L169.698 265.41ZM147.22 254.184L169.698 265.41L174.166 256.464L151.688 245.238L147.22 254.184ZM149.449 238.531L144.981 247.477L153.927 251.945L158.395 242.999L149.449 238.531ZM174.147 245.277L156.156 236.291L151.688 245.238L169.679 254.223L174.147 245.277ZM204.913 171.878L167.433 247.53L176.393 251.969L213.874 176.317L204.913 171.878ZM220.574 174.056L211.613 169.617L207.174 178.578L216.134 183.017L220.574 174.056ZM178.634 247.518L174.147 245.277L169.679 254.223L174.166 256.464L178.634 247.518ZM255.158 285.735L178.634 247.518L174.166 256.464L250.69 294.682L255.158 285.735ZM252.929 301.389L257.397 292.443L248.451 287.975L243.983 296.921L252.929 301.389ZM169.698 265.41L246.222 303.628L250.69 294.682L174.166 256.464L169.698 265.41ZM167.669 258.283L167.459 258.703L176.406 263.171L176.616 262.751L167.669 258.283ZM165.456 262.784L169.923 264.997L174.362 256.036L169.895 253.823L165.456 262.784ZM165.206 252.025L163.195 256.084L172.156 260.523L174.166 256.464L165.206 252.025ZM167.433 247.53L165.206 252.025L174.166 256.464L176.393 251.969L167.433 247.53Z" fill="black"/>
<path id="Fill 24" opacity="0.203218" fill-rule="evenodd" clip-rule="evenodd" d="M319.636 167.599C319.636 174.511 314.034 180.111 307.124 180.111C300.212 180.111 294.61 174.511 294.61 167.599C294.61 160.689 307.124 143.087 307.124 143.087C307.124 143.087 319.636 160.689 319.636 167.599Z" fill="black"/>
<path id="Stroke 28" opacity="0.195964" d="M198.201 416.779C198.201 416.779 250.411 416.071 250.691 287.555" stroke="black" stroke-width="5"/>
<path id="Stroke 30" opacity="0.199009" d="M427.406 410.779C427.406 410.779 387.619 410.132 387.406 292.779" stroke="black" stroke-width="5"/>
<path id="Stroke 22" opacity="0.203497" d="M309.792 180.111C317.537 235.96 338.148 289.554 324.834 478.47" stroke="black" stroke-width="3"/>
<g id="Pockets and hood">
<path id="Pockets" fill-rule="evenodd" clip-rule="evenodd" d="M144.303 107.962C144.303 107.962 157.699 41.8276 243.145 41.9996C283.223 42.0803 291.599 64.3222 289.195 87.9195C289.125 88.5993 286.609 88.2516 285.025 88.0328C284.677 87.9847 284.374 87.9428 284.152 87.9195C278.078 87.2809 275.713 87.1488 271.864 86.9339L271.864 86.9339L271.863 86.9339C271.153 86.8942 270.392 86.8517 269.548 86.8027C269.399 86.794 269.249 86.7858 269.098 86.7781L305.954 127.571L329.744 64.781L377.534 105.915L305.074 151.907C305.074 151.907 229.483 104.18 204.609 89.333L144.303 107.962ZM427.379 446.882H323.979H198.529L200.529 417.594C231.999 406.466 249.807 368.438 249.269 287.554L321.108 288.616L384.657 289.554C385.283 360.316 398.163 392.316 425.379 415.594L427.379 446.882Z" fill="#EFEFEF"/>
</g>
<path id="Stroke 22_2" opacity="0.201474" d="M309.792 180.111C318.146 230.798 338.293 289.084 324.979 478" stroke="black" stroke-width="3"/>
</g>
</g>
</svg>
