<svg width="1515" height="1548" viewBox="0 0 1515 1548" fill="none" xmlns="http://www.w3.org/2000/svg">
<path fill-rule="evenodd" clip-rule="evenodd" d="M518.322 661.46C518.322 755.99 441.545 832.622 346.835 832.622C252.126 832.622 175.349 755.99 175.349 661.46C175.349 566.929 252.126 490.298 346.835 490.298C441.545 490.298 518.322 566.929 518.322 661.46Z" fill="#ECF6FF"/>
<path d="M346.835 611.992V962.084" stroke="#B6D4FF" stroke-width="8"/>
<path d="M346.835 774.318L385.01 736.216" stroke="#B6D4FF" stroke-width="8"/>
<path d="M348.276 659.947L367.932 640.328" stroke="#B6D4FF" stroke-width="8"/>
<path d="M346.835 717.472L310.249 680.956" stroke="#B6D4FF" stroke-width="8"/>
<path fill-rule="evenodd" clip-rule="evenodd" d="M1208.61 779.576C1208.61 861.076 1155.29 897.652 1089.78 897.652C1024.27 897.652 970.955 861.076 970.955 779.576C970.955 627.758 1035.81 485.982 1089.78 485.982C1143.76 485.982 1208.61 627.758 1208.61 779.576Z" fill="#ECF6FF"/>
<path d="M1089.78 647.623V965.298" stroke="#CCE3FF" stroke-width="8" stroke-linecap="square"/>
<path d="M1091.95 844.164L1136.08 800.118" stroke="#CCE3FF" stroke-width="8" stroke-linecap="square"/>
<path d="M1091.23 702.457L1118.65 675.087" stroke="#CCE3FF" stroke-width="8" stroke-linecap="square"/>
<path d="M1088.34 779.844L1047.66 739.236" stroke="#CCE3FF" stroke-width="8" stroke-linecap="square"/>
<path fill-rule="evenodd" clip-rule="evenodd" d="M934.247 750.449C934.247 832.918 880.38 878.926 810.22 878.926C740.058 878.926 686.19 832.918 686.19 750.449C686.19 576.814 765.353 376.64 810.22 376.64C855.086 376.64 934.247 576.814 934.247 750.449Z" fill="#CCE3FF"/>
<path d="M810.22 627.783V1008.43" stroke="#ECF6FF" stroke-width="8" stroke-linecap="square"/>
<path d="M811.701 829.426L855.599 785.567" stroke="#ECF6FF" stroke-width="8" stroke-linecap="square"/>
<path d="M806.545 745.861L770.624 709.972" stroke="#ECF6FF" stroke-width="8" stroke-linecap="square"/>
<path d="M812.381 689.64L839.802 662.242" stroke="#ECF6FF" stroke-width="8" stroke-linecap="square"/>
<path fill-rule="evenodd" clip-rule="evenodd" d="M769.618 1049.8L803.568 1207.94H826.026L792.077 1049.8H769.618Z" fill="#CCE3FF"/>
<path fill-rule="evenodd" clip-rule="evenodd" d="M223.828 1049.8H805.138V1025.33H223.828V1049.8Z" fill="#D7EBFF"/>
<path fill-rule="evenodd" clip-rule="evenodd" d="M681.878 1138.39H795.215V1113.93H681.878V1138.39Z" fill="#D7EBFF"/>
<path fill-rule="evenodd" clip-rule="evenodd" d="M343.938 888.8L318.461 1025.33H349.206L374.683 888.8H343.938Z" fill="#CCE3FF"/>
<path fill-rule="evenodd" clip-rule="evenodd" d="M787.06 888.8L761.583 1025.33H792.327L817.804 888.8H787.06Z" fill="#CCE3FF"/>
<path fill-rule="evenodd" clip-rule="evenodd" d="M668.82 1049.8H805.138V1025.33H668.82V1049.8Z" fill="#B6D4FF"/>
<path fill-rule="evenodd" clip-rule="evenodd" d="M848.465 977.8L843.908 1002.27H813.158L817.725 977.8H848.465Z" fill="#CCE3FF"/>
<path fill-rule="evenodd" clip-rule="evenodd" d="M817.724 977.8L813.158 1002.27H295.769L300.335 977.8H817.724Z" fill="#D7EBFF"/>
<path fill-rule="evenodd" clip-rule="evenodd" d="M856.766 933.302L852.209 957.762H821.459L826.025 933.302H856.766Z" fill="#CCE3FF"/>
<path fill-rule="evenodd" clip-rule="evenodd" d="M826.025 933.302L821.459 957.762H304.069L308.636 933.302H826.025Z" fill="#D7EBFF"/>
<path fill-rule="evenodd" clip-rule="evenodd" d="M834.325 888.803L829.769 913.264H860.509L865.066 888.803H834.325Z" fill="#CCE3FF"/>
<path fill-rule="evenodd" clip-rule="evenodd" d="M316.944 888.803L312.378 913.264H829.768L834.326 888.803H316.944Z" fill="#D7EBFF"/>
<path fill-rule="evenodd" clip-rule="evenodd" d="M681.877 1049.8L647.928 1207.94H670.387L704.336 1049.8H681.877Z" fill="#CCE3FF"/>
<path fill-rule="evenodd" clip-rule="evenodd" d="M324.89 1049.8L358.839 1207.94H381.297L347.348 1049.8H324.89Z" fill="#CCE3FF"/>
<path fill-rule="evenodd" clip-rule="evenodd" d="M237.149 1138.39H350.487V1113.93H237.149V1138.39Z" fill="#D7EBFF"/>
<path fill-rule="evenodd" clip-rule="evenodd" d="M237.149 1049.8L203.2 1207.94H225.659L259.607 1049.8H237.149Z" fill="#CCE3FF"/>
<path fill-rule="evenodd" clip-rule="evenodd" d="M1175.37 894.774H1191.37V182.911H1175.37V894.774Z" fill="#D7EBFF"/>
<path fill-rule="evenodd" clip-rule="evenodd" d="M1010.97 201.028L884.353 159.054C879.064 157.301 876.17 151.538 877.924 146.249L884.24 127.195C885.994 121.906 891.756 119.013 897.045 120.766L1023.66 162.74C1028.95 164.493 1031.85 170.256 1030.09 175.545L1023.78 194.599C1022.02 199.888 1016.26 202.781 1010.97 201.028Z" fill="#ECF6FF"/>
<path fill-rule="evenodd" clip-rule="evenodd" d="M1152.7 1158.7H1214.03V922.773H1152.7V1158.7Z" fill="#CCE3FF"/>
<path fill-rule="evenodd" clip-rule="evenodd" d="M1165.7 966.772H1201.04V886.047H1165.7V966.772Z" fill="#CCE3FF"/>
<path fill-rule="evenodd" clip-rule="evenodd" d="M1168.67 199.928H1198.07V165.7H1168.67V199.928Z" fill="#CCE3FF"/>
<path d="M968.046 144.644C968.046 144.644 1183.37 192.253 1183.37 307.97" stroke="#DCEEFF" stroke-width="15" stroke-linejoin="bevel"/>
<path fill-rule="evenodd" clip-rule="evenodd" d="M1025.11 188.156L886.302 142.141C873.88 138.024 867.086 124.49 871.203 112.068L872.45 108.306C876.568 95.8836 890.101 89.0886 902.524 93.2066L1041.33 139.221C1053.76 143.339 1060.55 156.872 1056.43 169.295L1055.18 173.057C1051.07 185.479 1037.53 192.274 1025.11 188.156Z" fill="#CCE3FF"/>
</svg>
