<svg width="2346" height="1402" viewBox="0 0 2346 1402" fill="none" xmlns="http://www.w3.org/2000/svg">
<path fill-rule="evenodd" clip-rule="evenodd" d="M1449.56 357.529C1449.56 436.458 1385.63 500.441 1306.78 500.441C1227.92 500.441 1164 436.458 1164 357.529C1164 278.601 1227.92 214.617 1306.78 214.617C1385.63 214.617 1449.56 278.601 1449.56 357.529Z" fill="#ECF6FF"/>
<path d="M1306.78 316.226V608.535" stroke="#B6D4FF" stroke-width="8"/>
<path d="M1306.78 451.761L1338.56 419.947" stroke="#B6D4FF" stroke-width="8"/>
<path d="M1307.98 356.266L1324.34 339.885" stroke="#B6D4FF" stroke-width="8"/>
<path d="M1306.78 404.297L1276.32 373.808" stroke="#B6D4FF" stroke-width="8"/>
<path fill-rule="evenodd" clip-rule="evenodd" d="M2016.04 342.83C2016.04 448.761 1972.22 544.971 1873.02 544.971C1773.82 544.971 1730 448.761 1730 342.83C1730 218.567 1804.96 95 1873.02 95C1941.07 95 2016.04 218.567 2016.04 342.83Z" fill="#ECF6FF"/>
<path d="M1873.02 319.985V621.66" stroke="#DCEEFF" stroke-width="8" stroke-linecap="square"/>
<path d="M1876.02 457.871L1914.73 414.407" stroke="#DCEEFF" stroke-width="8" stroke-linecap="square"/>
<path d="M1867.31 398.864L1828.6 355.399" stroke="#DCEEFF" stroke-width="8" stroke-linecap="square"/>
<path fill-rule="evenodd" clip-rule="evenodd" d="M1594.06 414.064C1590.15 405.211 1568.71 406.71 1568.71 382.023C1568.7 344.851 1636.42 349.094 1640.41 321.087C1644.4 293.08 1600.89 293.749 1599.54 270.126C1598.2 246.503 1631.28 197.76 1681.48 197.76C1721.06 197.76 1688.28 235.37 1720.23 252.189C1752.17 269.009 1788.66 247.461 1806.71 273.91C1831.59 310.341 1767.98 354.094 1774.26 382.023C1780.53 409.951 1817.82 403.348 1818.96 434.034C1820.1 464.722 1765.94 470.122 1771.04 496.436C1774.26 513.023 1808.54 507.485 1810.33 540.193C1811.86 567.885 1694.09 602.151 1605.62 545.799C1517.15 489.447 1608.99 447.856 1594.06 414.064Z" fill="#CCE3FF"/>
<path d="M1691.56 346.987V619.144" stroke="#ECF6FF" stroke-width="8" stroke-linecap="square"/>
<path d="M1693.42 531.261L1739.68 496.289" stroke="#ECF6FF" stroke-width="8" stroke-linecap="square"/>
<path d="M1694.04 431.646L1717.55 413.868" stroke="#ECF6FF" stroke-width="8" stroke-linecap="square"/>
<path d="M1689.09 471.226L1652.21 443.34" stroke="#ECF6FF" stroke-width="8" stroke-linecap="square"/>
<path d="M1689.94 385.125L1672.02 371.576" stroke="#ECF6FF" stroke-width="8" stroke-linecap="square"/>
<path fill-rule="evenodd" clip-rule="evenodd" d="M1368.04 931.287V931.276L1349.93 790.957H1569.49L1587.6 931.287H1368.04Z" fill="#ECF6FF"/>
<path fill-rule="evenodd" clip-rule="evenodd" d="M1148.9 936.651C1148.9 969.124 1122.57 995.448 1090.1 995.448C1057.63 995.448 1031.3 969.124 1031.3 936.651C1031.3 904.178 1057.63 877.854 1090.1 877.854C1122.57 877.854 1148.9 904.178 1148.9 936.651Z" fill="#B6D4FF"/>
<path fill-rule="evenodd" clip-rule="evenodd" d="M1606.37 936.651C1606.37 969.124 1580.05 995.448 1547.57 995.448C1515.1 995.448 1488.78 969.124 1488.78 936.651C1488.78 904.178 1515.1 877.854 1547.57 877.854C1580.05 877.854 1606.37 904.178 1606.37 936.651Z" fill="#B6D4FF"/>
<path fill-rule="evenodd" clip-rule="evenodd" d="M1400.65 931.292H756.379C717.299 931.292 684.29 902.271 679.29 863.512L670 791.522L794.37 790.962L794.359 790.912L760.58 561.502H1266.98L1349.28 789.182L1349.93 790.962L1400.65 931.292Z" fill="#CCE3FF"/>
<path fill-rule="evenodd" clip-rule="evenodd" d="M1400.65 931.292H1248.95L1234.7 891.882L1228.77 875.462L1198.23 790.962L1115.29 561.502H1266.98L1349.28 789.182L1349.93 790.962L1400.65 931.292Z" fill="white"/>
<path fill-rule="evenodd" clip-rule="evenodd" d="M1148.59 790.912H989.83L956.05 561.502H1065.66L1098.95 653.601L1110.42 685.321L1137.59 760.481L1140.44 768.351L1148.59 790.912Z" fill="white"/>
<path fill-rule="evenodd" clip-rule="evenodd" d="M1443.01 931.282H1191.01V790.962H1342.73C1389.72 790.962 1429.4 825.851 1435.42 872.454L1443.01 931.282Z" fill="#CCE3FF"/>
<path fill-rule="evenodd" clip-rule="evenodd" d="M1483.7 790.962V931.282H1443.01L1424.9 790.962H1483.7Z" fill="#CCE3FF"/>
<path fill-rule="evenodd" clip-rule="evenodd" d="M1443.01 931.287V931.276L1424.9 790.957H1576.59C1615.4 790.957 1648.18 819.773 1653.15 858.265L1662.57 931.287H1443.01Z" fill="#ECF6FF"/>
<path fill-rule="evenodd" clip-rule="evenodd" d="M791.055 932.489C791.055 893.384 824.306 861.683 865.324 861.683C906.341 861.683 939.592 893.384 939.592 932.489H791.055Z" fill="white"/>
<path fill-rule="evenodd" clip-rule="evenodd" d="M1248.53 932.489C1248.53 893.384 1281.78 861.683 1322.8 861.683C1363.81 861.683 1397.06 893.384 1397.06 932.489H1248.53Z" fill="white"/>
<path fill-rule="evenodd" clip-rule="evenodd" d="M1381.59 936.651C1381.59 969.124 1355.27 995.448 1322.8 995.448C1290.32 995.448 1264 969.124 1264 936.651C1264 904.178 1290.32 877.854 1322.8 877.854C1355.27 877.854 1381.59 904.178 1381.59 936.651Z" fill="#B6D4FF"/>
<path fill-rule="evenodd" clip-rule="evenodd" d="M1637.03 860.389C1637.03 874.388 1627.79 885.737 1616.38 885.737C1604.97 885.737 1595.72 874.388 1595.72 860.389C1595.72 846.389 1604.97 835.04 1616.38 835.04C1627.79 835.04 1637.03 846.389 1637.03 860.389Z" fill="white"/>
<path fill-rule="evenodd" clip-rule="evenodd" d="M1506.56 860.389C1506.56 874.388 1497.32 885.737 1485.91 885.737C1474.5 885.737 1465.25 874.388 1465.25 860.389C1465.25 846.389 1474.5 835.04 1485.91 835.04C1497.32 835.04 1506.56 846.389 1506.56 860.389Z" fill="white"/>
<path fill-rule="evenodd" clip-rule="evenodd" d="M924.119 936.651C924.119 969.124 897.796 995.448 865.323 995.448C832.85 995.448 806.526 969.124 806.526 936.651C806.526 904.178 832.85 877.854 865.323 877.854C897.796 877.854 924.119 904.178 924.119 936.651Z" fill="#B6D4FF"/>
<path fill-rule="evenodd" clip-rule="evenodd" d="M1532.66 871.341H1575.65V849.438H1532.66V871.341Z" fill="#CCE3FF"/>
<path fill-rule="evenodd" clip-rule="evenodd" d="M1017.12 790.912V790.932H905.29L871.51 561.502H983.33L1017.12 790.912Z" fill="white"/>
<path fill-rule="evenodd" clip-rule="evenodd" d="M863.31 790.912H751.48L673.375 790.961L764.914 561.5L829.52 561.502L863.31 790.912Z" fill="white"/>
<path d="M1349.93 790.958L1349.28 789.179L1266.98 561.502" stroke="#CCE3FF" stroke-width="7"/>
<path d="M675.048 830.648H1272.79" stroke="white" stroke-width="3"/>
<path d="M673.375 790.961L764.914 561.5H1265.63" stroke="#CCE3FF" stroke-width="7"/>
<path fill-rule="evenodd" clip-rule="evenodd" d="M1160.45 778.83H1092.14C1074.47 778.83 1060.14 764.503 1060.14 746.83C1060.14 729.157 1074.47 714.83 1092.14 714.83H1160.45V778.83Z" fill="#B6D4FF"/>
<path fill-rule="evenodd" clip-rule="evenodd" d="M426.559 489.529C426.559 568.458 362.634 632.441 283.779 632.441C204.924 632.441 141 568.458 141 489.529C141 410.601 204.924 346.617 283.779 346.617C362.634 346.617 426.559 410.601 426.559 489.529Z" fill="#ECF6FF"/>
<path d="M283.779 448.226V740.535" stroke="#B6D4FF" stroke-width="8"/>
<path d="M283.779 583.761L315.563 551.947" stroke="#B6D4FF" stroke-width="8"/>
<path d="M284.979 488.266L301.345 471.885" stroke="#B6D4FF" stroke-width="8"/>
<path d="M283.779 536.297L253.318 505.808" stroke="#B6D4FF" stroke-width="8"/>
<path fill-rule="evenodd" clip-rule="evenodd" d="M598.674 527.15C598.674 595.199 554.28 625.737 499.734 625.737C445.194 625.737 400.8 595.199 400.8 527.15C400.8 400.39 454.794 282.014 499.734 282.014C544.68 282.014 598.674 400.39 598.674 527.15Z" fill="#ECF6FF"/>
<path d="M499.737 416.976V682.219" stroke="#CCE3FF" stroke-width="8" stroke-linecap="square"/>
<path d="M501.537 581.078L538.279 544.302" stroke="#CCE3FF" stroke-width="8" stroke-linecap="square"/>
<path d="M500.937 462.76L523.768 439.907" stroke="#CCE3FF" stroke-width="8" stroke-linecap="square"/>
<path d="M498.537 527.374L464.664 493.469" stroke="#CCE3FF" stroke-width="8" stroke-linecap="square"/>
</svg>
