<svg width="5212" height="3064" viewBox="0 0 5212 3064" fill="none" xmlns="http://www.w3.org/2000/svg">
<g id="Illustration 4">
<g id="Background">
<g id="Background Object / Tree / 3">
<g id="Group 12">
<path id="Fill 1" fill-rule="evenodd" clip-rule="evenodd" d="M2187.68 1466.96C2187.68 1598.39 2081.03 1704.93 1949.47 1704.93C1817.9 1704.93 1711.25 1598.39 1711.25 1466.96C1711.25 1335.54 1817.9 1229 1949.47 1229C2081.03 1229 2187.68 1335.54 2187.68 1466.96Z" fill="#ECF6FF"/>
<path id="Stroke 4" d="M1949.47 1398.19V1884.92" stroke="#B6D4FF" stroke-width="8"/>
<path id="Stroke 6" d="M1949.46 1623.87L2002.49 1570.9" stroke="#B6D4FF" stroke-width="8"/>
<path id="Stroke 8" d="M1951.47 1464.86L1978.77 1437.59" stroke="#B6D4FF" stroke-width="8"/>
<path id="Stroke 10" d="M1949.47 1544.84L1898.64 1494.07" stroke="#B6D4FF" stroke-width="8"/>
</g>
</g>
<g id="Background Object / Tree / 5">
<g id="Group 12_2">
<path id="Fill 1_2" fill-rule="evenodd" clip-rule="evenodd" d="M1196.9 1514.18C1196.9 1628.72 1122.07 1692.62 1024.61 1692.62C927.145 1692.62 852.316 1628.72 852.316 1514.18C852.316 1273.02 962.284 995 1024.61 995C1086.93 995 1196.9 1273.02 1196.9 1514.18Z" fill="#CCE3FF"/>
<path id="Stroke 4_2" d="M1024.61 1343.81V1872.48" stroke="#ECF6FF" stroke-width="8" stroke-linecap="square"/>
<path id="Stroke 6_2" d="M1026.67 1623.87L1087.65 1562.96" stroke="#ECF6FF" stroke-width="8" stroke-linecap="square"/>
<path id="Stroke 8_2" d="M1019.5 1507.81L969.605 1457.96" stroke="#ECF6FF" stroke-width="8" stroke-linecap="square"/>
<path id="Stroke 10_2" d="M1027.61 1429.72L1065.71 1391.67" stroke="#ECF6FF" stroke-width="8" stroke-linecap="square"/>
</g>
</g>
<g id="Background Object / Cloud / 3">
<g id="Group 3">
<path id="Fill 1_3" fill-rule="evenodd" clip-rule="evenodd" d="M3438.35 575.612H2260C2260 575.612 2336.57 280.958 2495.43 280.958C2595.27 280.958 2635.42 385.136 2728.14 385.136C2820.85 385.136 2938.66 125.998 3090.33 125.998C3327.58 125.998 3438.35 575.612 3438.35 575.612Z" fill="#ECF6FF"/>
</g>
</g>
<g id="Background Object / Cloud / 4">
<g id="Group 3_2">
<path id="Fill 1_4" fill-rule="evenodd" clip-rule="evenodd" d="M1968.17 655.568H1264C1264 655.568 1330.34 558.818 1384.88 557.304C1449.96 555.498 1479.27 627.07 1541.78 627.07C1604.29 627.07 1646.15 452.002 1761.86 452.002C1885.39 452.002 1968.17 655.568 1968.17 655.568Z" fill="#ECF6FF"/>
</g>
</g>
<g id="Background Object / Tree / 2">
<g id="Group 14">
<path id="Fill 1_5" fill-rule="evenodd" clip-rule="evenodd" d="M3602.79 1515.35C3598.24 1501.7 3573.28 1504.01 3573.27 1465.97C3573.27 1408.68 3652.11 1415.22 3656.76 1372.06C3661.41 1328.9 3610.75 1329.93 3609.18 1293.52C3607.61 1257.12 3646.14 1182 3704.59 1182C3750.68 1182 3712.5 1239.96 3749.7 1265.88C3786.9 1291.8 3829.38 1258.6 3850.41 1299.35C3879.37 1355.5 3805.31 1422.93 3812.62 1465.97C3819.92 1509.01 3863.34 1498.83 3864.67 1546.12C3865.99 1593.41 3802.93 1601.74 3808.87 1642.29C3812.62 1667.85 3852.53 1659.32 3854.62 1709.72C3856.39 1752.4 3719.27 1805.21 3616.26 1718.36C3513.25 1631.52 3620.18 1567.42 3602.79 1515.35Z" fill="#CCE3FF"/>
<path id="Stroke 4_3" d="M3716.33 1411.97V1831.39" stroke="#ECF6FF" stroke-width="8" stroke-linecap="square"/>
<path id="Stroke 6_3" d="M3718.49 1695.96L3772.35 1642.06" stroke="#ECF6FF" stroke-width="8" stroke-linecap="square"/>
<path id="Stroke 8_3" d="M3719.21 1542.44L3746.59 1515.04" stroke="#ECF6FF" stroke-width="8" stroke-linecap="square"/>
<path id="Stroke 10_3" d="M3713.45 1603.44L3670.5 1560.46" stroke="#ECF6FF" stroke-width="8" stroke-linecap="square"/>
<path id="Stroke 12" d="M3714.44 1470.75L3693.57 1449.87" stroke="#ECF6FF" stroke-width="8" stroke-linecap="square"/>
</g>
</g>
<g id="Background Object / Streetlight / 1">
<g id="Group 11">
<path id="Fill 1_6" fill-rule="evenodd" clip-rule="evenodd" d="M3770.74 2095.55H3802.74V671.822H3770.74V2095.55Z" fill="#D7EBFF"/>
<path id="Fill 2" fill-rule="evenodd" clip-rule="evenodd" d="M3441.95 708.056L3188.71 624.108C3178.13 620.602 3172.34 609.076 3175.85 598.498L3188.48 560.39C3191.99 549.812 3203.51 544.026 3214.09 547.532L3467.33 631.48C3477.91 634.986 3483.7 646.512 3480.19 657.09L3467.56 695.198C3464.05 705.776 3452.52 711.562 3441.95 708.056Z" fill="#ECF6FF"/>
<path id="Fill 4" fill-rule="evenodd" clip-rule="evenodd" d="M3725.41 2623.4H3848.07V2151.55H3725.41V2623.4Z" fill="#CCE3FF"/>
<path id="Fill 6" fill-rule="evenodd" clip-rule="evenodd" d="M3751.41 2239.54H3822.07V2078.09H3751.41V2239.54Z" fill="#CCE3FF"/>
<path id="Fill 7" fill-rule="evenodd" clip-rule="evenodd" d="M3757.34 705.856H3816.14V637.4H3757.34V705.856Z" fill="#CCE3FF"/>
<path id="Stroke 8_4" d="M3356.09 595.287C3356.09 595.287 3786.74 690.505 3786.74 921.939" stroke="#DCEEFF" stroke-width="15" stroke-linejoin="bevel"/>
<path id="Fill 9" fill-rule="evenodd" clip-rule="evenodd" d="M3470.22 682.311L3192.6 590.281C3167.76 582.047 3154.17 554.979 3162.41 530.135L3164.9 522.611C3173.14 497.767 3200.2 484.177 3225.05 492.413L3502.67 584.441C3527.51 592.677 3541.1 619.743 3532.86 644.589L3530.37 652.113C3522.13 676.957 3495.07 690.547 3470.22 682.311Z" fill="#CCE3FF"/>
</g>
</g>
<g id="Background Object / Tree / 1">
<g id="Group 10">
<path id="Fill 1_7" fill-rule="evenodd" clip-rule="evenodd" d="M3664.04 1507.78C3664.04 1635.01 3611.47 1750.57 3492.42 1750.57C3373.38 1750.57 3320.8 1635.01 3320.8 1507.78C3320.8 1358.52 3410.76 1210.11 3492.42 1210.11C3574.09 1210.11 3664.04 1358.52 3664.04 1507.78Z" fill="#ECF6FF"/>
<path id="Stroke 4_4" d="M3492.42 1480.34V1842.69" stroke="#DCEEFF" stroke-width="8" stroke-linecap="square"/>
<path id="Stroke 6_4" d="M3496.02 1645.96L3542.47 1593.75" stroke="#DCEEFF" stroke-width="8" stroke-linecap="square"/>
<path id="Stroke 8_5" d="M3485.58 1575.08L3439.12 1522.88" stroke="#DCEEFF" stroke-width="8" stroke-linecap="square"/>
</g>
</g>
<g id="Background Object / Streetlight / 2">
<g id="Group 11_2">
<path id="Fill 1_8" fill-rule="evenodd" clip-rule="evenodd" d="M679.262 2087.55H647.262V663.822H679.262V2087.55Z" fill="#D7EBFF"/>
<path id="Fill 2_2" fill-rule="evenodd" clip-rule="evenodd" d="M1008.05 700.056L1261.29 616.108C1271.87 612.602 1277.66 601.076 1274.15 590.498L1261.52 552.39C1258.01 541.812 1246.49 536.026 1235.91 539.532L982.67 623.48C972.092 626.986 966.304 638.512 969.812 649.09L982.444 687.198C985.95 697.776 997.476 703.562 1008.05 700.056Z" fill="#ECF6FF"/>
<path id="Fill 4_2" fill-rule="evenodd" clip-rule="evenodd" d="M724.592 2615.4H601.932V2143.55H724.592V2615.4Z" fill="#CCE3FF"/>
<path id="Fill 6_2" fill-rule="evenodd" clip-rule="evenodd" d="M698.594 2231.54H627.93V2070.09H698.594V2231.54Z" fill="#CCE3FF"/>
<path id="Fill 7_2" fill-rule="evenodd" clip-rule="evenodd" d="M692.664 697.856H633.856V629.4H692.664V697.856Z" fill="#CCE3FF"/>
<path id="Stroke 8_6" d="M1093.91 587.287C1093.91 587.287 663.262 682.505 663.262 913.939" stroke="#DCEEFF" stroke-width="15" stroke-linejoin="bevel"/>
<path id="Fill 9_2" fill-rule="evenodd" clip-rule="evenodd" d="M979.778 674.311L1257.4 582.281C1282.24 574.047 1295.83 546.979 1287.59 522.135L1285.1 514.611C1276.86 489.767 1249.8 476.177 1224.95 484.413L947.334 576.441C922.49 584.677 908.902 611.743 917.138 636.589L919.632 644.113C927.867 668.957 954.934 682.547 979.778 674.311Z" fill="#CCE3FF"/>
</g>
</g>
<g id="Background Object / Trach">
<g id="Group 18">
<path id="Fill 1_9" fill-rule="evenodd" clip-rule="evenodd" d="M4468.49 2081.5L4431.29 2620.43H4104.55L4067.35 2081.5C4066.18 2064.62 4079.55 2050.29 4096.47 2050.29H4439.37C4456.29 2050.29 4469.67 2064.62 4468.49 2081.5Z" fill="#DCEEFF"/>
<path id="Stroke 3" d="M4267.92 2171.84V2535.29" stroke="#B6D4FF" stroke-width="16" stroke-linecap="round"/>
<path id="Stroke 5" d="M4383.82 2171.84L4358.55 2535.29" stroke="#B6D4FF" stroke-width="16" stroke-linecap="round"/>
<path id="Stroke 7" d="M4152.02 2171.84L4177.29 2535.29" stroke="#B6D4FF" stroke-width="16" stroke-linecap="round"/>
<path id="Fill 9_3" fill-rule="evenodd" clip-rule="evenodd" d="M4482.45 2084.18H4052V2061.32C4052 2040.66 4068.75 2023.91 4089.41 2023.91H4445.05C4465.71 2023.91 4482.45 2040.66 4482.45 2061.32V2084.18Z" fill="#DCEEFF"/>
<path id="Stroke 12_2" d="M4067.28 2097.42H4468.56" stroke="#CCE3FF" stroke-width="14"/>
<path id="Fill 14" fill-rule="evenodd" clip-rule="evenodd" d="M4188.74 2031.83H4206.13V1993.23H4188.74V2031.83Z" fill="#DCEEFF"/>
<path id="Fill 16" fill-rule="evenodd" clip-rule="evenodd" d="M4323.57 2028.22H4340.96V1989.62H4323.57V2028.22Z" fill="#DCEEFF"/>
<path id="Fill 17" fill-rule="evenodd" clip-rule="evenodd" d="M4188.74 1999.38H4340.96V1978H4188.74V1999.38Z" fill="#DCEEFF"/>
</g>
</g>
<g id="Background Object / Tree / 1_2">
<g id="Group 10_2">
<path id="Fill 1_10" fill-rule="evenodd" clip-rule="evenodd" d="M1404.04 1507.78C1404.04 1635.01 1351.47 1750.57 1232.42 1750.57C1113.38 1750.57 1060.8 1635.01 1060.8 1507.78C1060.8 1358.52 1150.76 1210.11 1232.42 1210.11C1314.09 1210.11 1404.04 1358.52 1404.04 1507.78Z" fill="#ECF6FF"/>
<path id="Stroke 4_5" d="M1232.42 1480.34V1842.69" stroke="#DCEEFF" stroke-width="8" stroke-linecap="square"/>
<path id="Stroke 6_5" d="M1236.02 1645.96L1282.47 1593.75" stroke="#DCEEFF" stroke-width="8" stroke-linecap="square"/>
<path id="Stroke 8_7" d="M1225.58 1575.08L1179.12 1522.88" stroke="#DCEEFF" stroke-width="8" stroke-linecap="square"/>
</g>
</g>
</g>
</g>
</svg>
