<svg width="3102" height="2510" viewBox="0 0 3102 2510" fill="none" xmlns="http://www.w3.org/2000/svg">
<g id="Illustration 5">
<g id="Background">
<g id="Background Object / Closet / 3">
<g id="Group 55">
<path id="Fill 1" fill-rule="evenodd" clip-rule="evenodd" d="M2307.63 774.848H2304.79C2265.57 774.848 2233.78 743.056 2233.78 703.838V661.6H2378.64V703.838C2378.64 743.056 2346.84 774.848 2307.63 774.848Z" fill="#DCEEFF"/>
<path id="Fill 4" fill-rule="evenodd" clip-rule="evenodd" d="M1783.37 1923.08H1750.59V1843.73H1800.27L1783.37 1923.08Z" fill="#B6D4FF"/>
<path id="Fill 6" fill-rule="evenodd" clip-rule="evenodd" d="M1717.81 1843.73H2287.12V795.703H1717.81V1843.73Z" fill="#ECF6FF"/>
<path id="Fill 8" fill-rule="evenodd" clip-rule="evenodd" d="M1750.59 1923.08H1717.81V1843.73H1765.96L1750.59 1923.08Z" fill="#ECF6FF"/>
<path id="Fill 9" fill-rule="evenodd" clip-rule="evenodd" d="M2313.47 1923.08H2287.12V1843.73H2325.83L2313.47 1923.08Z" fill="#CCE3FF"/>
<path id="Fill 10" fill-rule="evenodd" clip-rule="evenodd" d="M2254.34 1923.08H2287.12V1843.73H2238.97L2254.34 1923.08Z" fill="#ECF6FF"/>
<path id="Fill 11" fill-rule="evenodd" clip-rule="evenodd" d="M1982.91 1923.08H1950.13V1843.73H1995.21L1982.91 1923.08Z" fill="#B6D4FF"/>
<path id="Fill 12" fill-rule="evenodd" clip-rule="evenodd" d="M2456.48 1923.08H2426.29L2414.96 1843.73H2456.48V1923.08Z" fill="#B6D4FF"/>
<path id="Fill 13" fill-rule="evenodd" clip-rule="evenodd" d="M2486.67 1923.08H2456.48L2446.57 1843.73H2486.67V1923.08Z" fill="#CCE3FF"/>
<path id="Fill 14" fill-rule="evenodd" clip-rule="evenodd" d="M1950.13 1923.08H1917.36L1905.06 1843.73H1950.13V1923.08Z" fill="#C5E0FC"/>
<path id="Fill 15" fill-rule="evenodd" clip-rule="evenodd" d="M1741.88 1397.85H2263.04V1212.63H1741.88V1397.85Z" fill="#B6D4FF"/>
<path id="Fill 16" fill-rule="evenodd" clip-rule="evenodd" d="M1741.88 1397.85H1903.11V1212.63H1741.88V1397.85Z" fill="#CCE3FF"/>
<path id="Fill 17" fill-rule="evenodd" clip-rule="evenodd" d="M1741.88 1600.9H2263.04V1415.68H1741.88V1600.9Z" fill="#B6D4FF"/>
<path id="Fill 18" fill-rule="evenodd" clip-rule="evenodd" d="M1741.88 1600.9H1903.11V1415.68H1741.88V1600.9Z" fill="#CCE3FF"/>
<path id="Fill 19" fill-rule="evenodd" clip-rule="evenodd" d="M1741.88 1803.94H2263.04V1618.72H1741.88V1803.94Z" fill="#B6D4FF"/>
<path id="Fill 20" fill-rule="evenodd" clip-rule="evenodd" d="M1741.88 1803.94H1903.11V1618.72H1741.88V1803.94Z" fill="#CCE3FF"/>
<path id="Fill 21" fill-rule="evenodd" clip-rule="evenodd" d="M1741.88 999.03H2263.04V813.812H1741.88V999.03Z" fill="#B6D4FF"/>
<path id="Fill 22" fill-rule="evenodd" clip-rule="evenodd" d="M1741.88 999.03H1903.11V813.812H1741.88V999.03Z" fill="#CCE3FF"/>
<path id="Fill 23" fill-rule="evenodd" clip-rule="evenodd" d="M1741.88 1194.8H2263.04V1018.13H1741.88V1194.8Z" fill="#B6D4FF"/>
<path id="Fill 24" fill-rule="evenodd" clip-rule="evenodd" d="M1741.88 1194.8H1903.11V1018.13H1741.88V1194.8Z" fill="#CCE3FF"/>
<path id="Fill 25" fill-rule="evenodd" clip-rule="evenodd" d="M2287.12 1843.73H2486.67V795.703H2287.12V1843.73Z" fill="#CCE3FF"/>
<path id="Fill 26" fill-rule="evenodd" clip-rule="evenodd" d="M1704.4 795.703H2268.28V761.703H1704.4V795.703Z" fill="#E6F4FF"/>
<path id="Fill 27" fill-rule="evenodd" clip-rule="evenodd" d="M2268.28 795.703H2499.73V761.703H2268.28V795.703Z" fill="#CCE3FF"/>
<path id="Fill 28" fill-rule="evenodd" clip-rule="evenodd" d="M2191.98 1551.9V1551.9C2191.98 1560.92 2184.67 1568.23 2175.65 1568.23H2044.43V1535.57H2175.65C2184.67 1535.57 2191.98 1542.88 2191.98 1551.9Z" fill="#CCE3FF"/>
<path id="Fill 29" fill-rule="evenodd" clip-rule="evenodd" d="M2102.67 1551.9V1551.9C2102.67 1557.12 2098.43 1561.35 2093.21 1561.35H2044.63C2044.52 1561.35 2044.43 1561.27 2044.43 1561.16V1542.64C2044.43 1542.53 2044.52 1542.44 2044.63 1542.44H2093.21C2098.43 1542.44 2102.67 1546.68 2102.67 1551.9Z" fill="#DCEEFF"/>
<path id="Fill 30" fill-rule="evenodd" clip-rule="evenodd" d="M2210.52 1568.23V1600.9H2067.15C2058.13 1600.9 2050.81 1593.58 2050.81 1584.56C2050.81 1575.54 2058.13 1568.23 2067.15 1568.23H2210.52Z" fill="#CCE3FF"/>
<path id="Fill 31" fill-rule="evenodd" clip-rule="evenodd" d="M2210.51 1575.2V1593.93H2151.82C2146.65 1593.93 2142.46 1589.74 2142.46 1584.56C2142.46 1579.39 2146.65 1575.2 2151.82 1575.2H2210.51Z" fill="#DCEEFF"/>
<path id="Fill 32" fill-rule="evenodd" clip-rule="evenodd" d="M2209.9 1502.9V1535.57H2075.94C2066.92 1535.57 2059.61 1528.25 2059.61 1519.23C2059.61 1510.21 2066.92 1502.9 2075.94 1502.9H2209.9Z" fill="#CCE3FF"/>
<path id="Fill 33" fill-rule="evenodd" clip-rule="evenodd" d="M2209.91 1509.87V1528.6H2160.62C2155.45 1528.6 2151.26 1524.41 2151.26 1519.23C2151.26 1514.06 2155.45 1509.87 2160.62 1509.87H2209.91Z" fill="#DCEEFF"/>
<path id="Fill 34" fill-rule="evenodd" clip-rule="evenodd" d="M1865.73 1398.21H1955.56V1272.63H1865.73V1398.21Z" fill="#DCEEFF"/>
<path id="Fill 35" fill-rule="evenodd" clip-rule="evenodd" d="M1865.73 1268.2H1955.56V1260.44H1865.73V1268.2Z" fill="#DCEEFF"/>
<path id="Fill 36" fill-rule="evenodd" clip-rule="evenodd" d="M1958.95 1289.93H1862.34C1856.99 1289.93 1852.66 1285.59 1852.66 1280.25V1277.87C1852.66 1272.53 1856.99 1268.2 1862.34 1268.2H1958.95C1964.29 1268.2 1968.62 1272.53 1968.62 1277.87V1280.25C1968.62 1285.59 1964.29 1289.93 1958.95 1289.93Z" fill="#E6F4FF"/>
<path id="Fill 37" fill-rule="evenodd" clip-rule="evenodd" d="M1794.59 1803.94H1933.33V1706.66H1794.59V1803.94Z" fill="#ECF6FF"/>
<path id="Fill 38" fill-rule="evenodd" clip-rule="evenodd" d="M1933.33 1803.94H2035.61V1706.66H1933.33V1803.94Z" fill="#CCE3FF"/>
<path id="Fill 39" fill-rule="evenodd" clip-rule="evenodd" d="M1906.09 1755.3H1823.11C1823.11 1746.78 1830.01 1739.88 1838.53 1739.88H1890.67C1899.19 1739.88 1906.09 1746.78 1906.09 1755.3Z" fill="#CCE3FF"/>
<path id="Fill 40" fill-rule="evenodd" clip-rule="evenodd" d="M1991.88 1803.94H2130.62V1706.66H1991.88V1803.94Z" fill="#ECF6FF"/>
<path id="Fill 41" fill-rule="evenodd" clip-rule="evenodd" d="M2130.62 1803.94H2232.9V1706.66H2130.62V1803.94Z" fill="#CCE3FF"/>
<path id="Fill 42" fill-rule="evenodd" clip-rule="evenodd" d="M2103.38 1755.3H2020.4C2020.4 1746.78 2027.3 1739.88 2035.82 1739.88H2087.96C2096.48 1739.88 2103.38 1746.78 2103.38 1755.3Z" fill="#CCE3FF"/>
<path id="Fill 43" fill-rule="evenodd" clip-rule="evenodd" d="M1832.06 999.031H1970.8V901.744H1832.06V999.031Z" fill="#ECF6FF"/>
<path id="Fill 44" fill-rule="evenodd" clip-rule="evenodd" d="M1970.8 999.031H2073.08V901.744H1970.8V999.031Z" fill="#CCE3FF"/>
<path id="Fill 45" fill-rule="evenodd" clip-rule="evenodd" d="M1943.56 950.388H1860.58C1860.58 941.871 1867.48 934.967 1876 934.967H1928.14C1936.66 934.967 1943.56 941.871 1943.56 950.388Z" fill="#CCE3FF"/>
<path id="Fill 46" fill-rule="evenodd" clip-rule="evenodd" d="M2126.36 1170.41L2139.14 1045.92H2179.09L2191.86 1170.41C2193.2 1183.46 2182.96 1194.8 2169.85 1194.8H2148.38C2135.26 1194.8 2125.02 1183.46 2126.36 1170.41Z" fill="#CCE3FF"/>
<path id="Fill 47" fill-rule="evenodd" clip-rule="evenodd" d="M1816.49 1600.89H1848.69V1477.9H1816.49V1600.89Z" fill="#DCEEFF"/>
<path id="Fill 48" fill-rule="evenodd" clip-rule="evenodd" d="M1784.29 1600.89H1816.49V1477.9H1784.29V1600.89Z" fill="#ECF6FF"/>
<path id="Fill 49" fill-rule="evenodd" clip-rule="evenodd" d="M1848.69 1600.89H1880.89V1477.9H1848.69V1600.89Z" fill="#ECF6FF"/>
<path id="Fill 50" fill-rule="evenodd" clip-rule="evenodd" d="M1965.72 1600.9H1880.89V1477.9H1965.72C1970.25 1477.9 1973.93 1481.57 1973.93 1486.1V1592.69C1973.93 1597.22 1970.25 1600.9 1965.72 1600.9Z" fill="#DCEEFF"/>
<path id="Fill 51" fill-rule="evenodd" clip-rule="evenodd" d="M1894.68 1507.99H1960.14V1495.82H1894.68V1507.99Z" fill="#CCE3FF"/>
<path id="Fill 52" fill-rule="evenodd" clip-rule="evenodd" d="M1909.26 1526.78H1945.55V1514.61H1909.26V1526.78Z" fill="#CCE3FF"/>
<path id="Fill 53" fill-rule="evenodd" clip-rule="evenodd" d="M2071.14 1407.96C2031.92 1407.96 2000.13 1376.16 2000.13 1336.94V1316.56H2142.15V1336.94C2142.15 1376.16 2110.36 1407.96 2071.14 1407.96Z" fill="#ECF6FF"/>
<path id="Fill 54" fill-rule="evenodd" clip-rule="evenodd" d="M2145.45 1138.18C2145.45 1162.11 2132.81 1183.1 2113.85 1194.8H2044.27C2025.31 1183.1 2012.67 1162.11 2012.67 1138.18C2012.67 1127.05 2015.41 1116.57 2020.24 1107.37H2137.88C2142.71 1116.57 2145.45 1127.05 2145.45 1138.18Z" fill="#DCEEFF"/>
</g>
</g>
<g id="Background Object / Chair / 5">
<g id="Group 14">
<path id="Fill 1_2" fill-rule="evenodd" clip-rule="evenodd" d="M570.699 1780.05L510.309 1922.02H482.923L519.254 1773.09L570.699 1780.05Z" fill="#B6D4FF"/>
<path id="Fill 2" fill-rule="evenodd" clip-rule="evenodd" d="M879.199 1780.05L818.81 1922.02H791.425L827.756 1773.09L879.199 1780.05Z" fill="#B6D4FF"/>
<path id="Fill 3" fill-rule="evenodd" clip-rule="evenodd" d="M1340 1922.02H1312.61L1252.23 1780.05L1303.67 1773.09L1340 1922.02Z" fill="#B6D4FF"/>
<path id="Fill 4_2" fill-rule="evenodd" clip-rule="evenodd" d="M1031.5 1922.02H1004.11L943.722 1780.05L995.167 1773.09L1031.5 1922.02Z" fill="#B6D4FF"/>
<path id="Fill 5" fill-rule="evenodd" clip-rule="evenodd" d="M1306.32 1447.79V1791.56L949.183 1792.32L890.452 1452.26L1306.32 1447.79ZM1279.12 1475.29L922.694 1479.13L972.079 1765.06L1279.12 1764.4V1475.29Z" fill="#B6D4FF"/>
<path id="Fill 6_2" fill-rule="evenodd" clip-rule="evenodd" d="M837.668 1236.48L933.666 1792.32H514.868L418.866 1236.48H837.668Z" fill="#CCE3FF"/>
<path id="Fill 7" fill-rule="evenodd" clip-rule="evenodd" d="M950.283 1236.48L1046.28 1792.32H632.563L536.563 1236.48H950.283Z" fill="#DCEEFF"/>
<path id="Fill 8_2" fill-rule="evenodd" clip-rule="evenodd" d="M1052.86 1792.32H560.392C535.25 1792.32 514.867 1771.93 514.867 1746.78V1641.82C514.867 1616.67 535.25 1596.28 560.392 1596.28H1052.86C1078.01 1596.28 1098.39 1616.67 1098.39 1641.82V1746.78C1098.39 1771.93 1078.01 1792.32 1052.86 1792.32Z" fill="#CCE3FF"/>
<path id="Fill 10_2" fill-rule="evenodd" clip-rule="evenodd" d="M1308.17 1792.32H872.007V1596.28H1308.17V1792.32Z" fill="#DCEEFF"/>
<path id="Fill 12_2" fill-rule="evenodd" clip-rule="evenodd" d="M872.008 1447.79V1791.56L514.867 1792.32L456.134 1452.26L872.008 1447.79ZM844.808 1475.29L488.377 1479.13L537.763 1765.06L844.808 1764.4V1475.29Z" fill="#B6D4FF"/>
</g>
</g>
<g id="Background Object / Pluteus / 2">
<g id="Group 21">
<path id="Fill 1_3" fill-rule="evenodd" clip-rule="evenodd" d="M456.776 489.986C462.342 536.706 502.109 572.953 550.334 572.953C598.56 572.953 638.326 536.706 643.893 489.986H456.776Z" fill="#ECF6FF"/>
<g id="Group 5">
<path id="Fill 3_2" fill-rule="evenodd" clip-rule="evenodd" d="M819 433.199C824.567 479.919 864.333 516.166 912.56 516.166C960.784 516.166 1000.55 479.919 1006.12 433.199H819Z" fill="#ECF6FF"/>
</g>
<path id="Fill 6_3" fill-rule="evenodd" clip-rule="evenodd" d="M819 489.986C824.567 536.706 864.333 572.953 912.56 572.953C960.784 572.953 1000.55 536.706 1006.12 489.986H819Z" fill="#ECF6FF"/>
<path id="Fill 8_3" fill-rule="evenodd" clip-rule="evenodd" d="M760.289 503.143H683.897L704.467 570.807H739.719L760.289 503.143Z" fill="#DCEEFF"/>
<path id="Fill 10_3" fill-rule="evenodd" clip-rule="evenodd" d="M1130.5 503.143H1054.11L1074.68 570.807H1109.93L1130.5 503.143Z" fill="#DCEEFF"/>
<path id="Fill 12_3" fill-rule="evenodd" clip-rule="evenodd" d="M760.289 458.959H683.897L704.467 526.625H739.719L760.289 458.959Z" fill="#DCEEFF"/>
<path id="Fill 14_2" fill-rule="evenodd" clip-rule="evenodd" d="M1193.6 586.924H516.515V558.482H1193.6V586.924Z" fill="#DCEEFF"/>
<path id="Fill 16_2" fill-rule="evenodd" clip-rule="evenodd" d="M516.516 586.924H405.128V558.482H516.516V586.924Z" fill="#CCE3FF"/>
<path id="Fill 17_2" fill-rule="evenodd" clip-rule="evenodd" d="M1028.57 586.924L975.699 669.877V586.924H1028.57Z" fill="#B6D4FF"/>
<path id="Fill 18_2" fill-rule="evenodd" clip-rule="evenodd" d="M1057.84 586.924L1004.96 669.877H975.7L1028.58 586.924H1057.84Z" fill="#CCE3FF"/>
<path id="Fill 19_2" fill-rule="evenodd" clip-rule="evenodd" d="M640.771 586.924L587.896 669.877V586.924H640.771Z" fill="#B6D4FF"/>
<path id="Fill 20_2" fill-rule="evenodd" clip-rule="evenodd" d="M670.033 586.924L617.158 669.877H587.897L640.772 586.924H670.033Z" fill="#CCE3FF"/>
</g>
</g>
<g id="Background Object / Picture / 5">
<g id="Group 8">
<path id="Fill 1_4" fill-rule="evenodd" clip-rule="evenodd" d="M1743.94 515.88H2134.1V185H1743.94V515.88Z" fill="#DCEEFF"/>
<path id="Stroke 2" fill-rule="evenodd" clip-rule="evenodd" d="M1743.94 515.88H2134.1V185H1743.94V515.88Z" stroke="#DCEEFF" stroke-width="5"/>
<path id="Fill 4_3" fill-rule="evenodd" clip-rule="evenodd" d="M1721 516.323H2111.16V185.443H1721V516.323Z" fill="white"/>
<path id="Stroke 5" fill-rule="evenodd" clip-rule="evenodd" d="M1721 516.323H2111.16V185.443H1721V516.323Z" stroke="#DCEEFF" stroke-width="5"/>
<path id="Fill 7_2" fill-rule="evenodd" clip-rule="evenodd" d="M1787.45 447.966H2039.15V252.914H1787.45V447.966Z" fill="#DCEEFF"/>
</g>
</g>
<g id="Background Object / Picture / 1">
<g id="Group 8_2">
<path id="Fill 1_5" fill-rule="evenodd" clip-rule="evenodd" d="M2483.73 519.494H2734.24V308.998H2483.73V519.494Z" fill="#DCEEFF"/>
<path id="Stroke 2_2" fill-rule="evenodd" clip-rule="evenodd" d="M2483.73 519.494H2734.24V308.998H2483.73V519.494Z" stroke="#DCEEFF" stroke-width="5"/>
<path id="Fill 4_4" fill-rule="evenodd" clip-rule="evenodd" d="M2469 519.777H2719.51V309.281H2469V519.777Z" fill="white"/>
<path id="Stroke 5_2" fill-rule="evenodd" clip-rule="evenodd" d="M2469 519.777H2719.51V309.281H2469V519.777Z" stroke="#DCEEFF" stroke-width="5"/>
<path id="Fill 7_3" fill-rule="evenodd" clip-rule="evenodd" d="M2511.67 476.289H2673.27V352.203H2511.67V476.289Z" fill="#DCEEFF"/>
</g>
</g>
</g>
</g>
</svg>
