<svg width="1160" height="1258" viewBox="0 0 1160 1258" fill="none" xmlns="http://www.w3.org/2000/svg">
<g id="Girl / Legs / 1">
<g id="Group 16">
<g id="Shoes color">
<path id="Shoes" fill-rule="evenodd" clip-rule="evenodd" d="M145.033 981.41L194.058 932.381L177.027 882.787L74.0004 967.751L143.841 1127.63C143.841 1127.63 150.02 1083.8 149.704 1039.03C149.487 1008.11 145.033 981.41 145.033 981.41ZM737.299 1100.39L726.251 1058.44L675.962 1060.32L715.528 1177.63L872.422 1079.34C825.076 1062.64 737.299 1100.39 737.299 1100.39Z" fill="#0D0B6D"/>
</g>
<g id="Skin color">
<path id="Skin" fill-rule="evenodd" clip-rule="evenodd" d="M181.698 944.877L176.31 882.742L115.922 932.581L145.033 981.411L181.698 944.877ZM717.867 1025.93L666.386 1035.53L695.828 1118.26L737.299 1100.39L717.867 1025.93Z" fill="#E576C6"/>
</g>
<g id="Pants color">
<path id="Pants" d="M458.929 743.563C379.011 902.62 241.437 1037.46 241.437 1037.46L118.263 854.807C118.263 854.807 282.359 710.73 359.801 392.578C346.783 340.307 337.532 297.249 334.283 269.653C323.63 179.288 377.378 118.441 391.801 103.922H398.417L560.473 103.922C563.936 116.806 577.667 189.036 572.917 295.439C587.224 342.98 603.974 400.365 623.378 469.249C733.839 861.365 785.07 1034.29 785.07 1034.29L575.072 1109.19C575.072 1109.19 514.793 928.688 458.929 743.563Z" fill="#0D0B6D"/>
</g>
<g id="Overlay">
<path id="Fill 13" opacity="0.14688" fill-rule="evenodd" clip-rule="evenodd" d="M785.07 1034.29L575.072 1109.19C575.072 1109.19 511.993 920.305 455.089 730.807C419.553 612.595 383.435 487.403 359.801 392.576C346.783 340.306 337.532 297.249 334.283 269.653C323.63 179.287 377.378 118.441 391.801 103.922H510.705C520.591 130.633 540.512 187.922 572.918 295.441C587.224 342.98 603.974 400.364 623.378 469.249C733.839 861.364 785.07 1034.29 785.07 1034.29Z" fill="white"/>
</g>
</g>
</g>
</svg>
