<svg width="1160" height="1258" viewBox="0 0 1160 1258" fill="none" xmlns="http://www.w3.org/2000/svg">
<g id="Girl / Legs / 6">
<g id="Group 14">
<g id="Shoes">
<path id="Shoes_2" fill-rule="evenodd" clip-rule="evenodd" d="M66.84 1018.93L120.916 971.231L106.464 918.645L0 1004.13L56.094 1170.62C56.094 1170.62 65.358 1125.53 67.942 1079.05C69.728 1046.93 66.84 1018.93 66.84 1018.93ZM947.327 1104.5C897.569 1088.67 807.547 1130.75 807.547 1130.75L769.015 1148.66L791.413 1209.75L947.327 1104.5Z" fill="#0D0B6D"/>
</g>
<g id="Skin color">
<path id="Skin" d="M431.568 124.535L478.581 104H497.061L504.92 130.016L554.44 133.717C554.158 126.747 551.276 166.937 536.959 235.951L658.501 637.878L807.541 1130.74L769.021 1148.66C769.021 1148.66 641.381 875.538 534.441 637.878C509.141 581.619 485.002 527.362 463.982 479.183C430.989 562.329 386.076 653.039 324.988 742.479C203.516 920.323 66.8398 1018.93 66.8398 1018.93L45.7998 968.355C45.7998 968.355 329.18 736.297 387.246 121.223L431.568 124.535Z" fill="#E576C6"/>
</g>
<g id="Skirt">
<path id="Skirt_2" d="M699.4 637.879H226.342C226.342 637.879 258.58 401.299 316.32 244.459C354.62 140.421 389.102 111.241 400.522 104.001H565.762C569.342 112.219 603.682 192.839 640.88 352.339C687.942 554.039 699.4 637.879 699.4 637.879Z" fill="#FCBDA4"/>
</g>
</g>
</g>
</svg>
