<svg width="530" height="558" viewBox="0 0 530 558" fill="none" xmlns="http://www.w3.org/2000/svg">
<g id="Girl / Head / 4">
<g id="Group 21">
<g id="Hair color">
<path id="Hair" d="M502.781 227.38C502.781 242.6 501.201 257.46 498.179 271.799C477.721 369.44 391.121 402.76 287.381 402.76C168.439 402.76 71.999 346.34 71.999 227.38C71.999 108.42 168.439 11.9995 287.381 11.9995C369.159 11.9995 440.301 57.5595 476.781 124.7C493.359 155.22 502.781 190.2 502.781 227.38Z" fill="#F6B852"/>
<mask id="mask0" mask-type="alpha" maskUnits="userSpaceOnUse" x="71" y="11" width="432" height="392">
<path id="Hair_2" d="M502.781 227.38C502.781 242.6 501.201 257.46 498.179 271.799C477.721 369.44 391.121 402.76 287.381 402.76C168.439 402.76 71.999 346.34 71.999 227.38C71.999 108.42 168.439 11.9995 287.381 11.9995C369.159 11.9995 440.301 57.5595 476.781 124.7C493.359 155.22 502.781 190.2 502.781 227.38Z" fill="white"/>
</mask>
<g mask="url(#mask0)">
</g>
</g>
<path id="Fill 4" fill-rule="evenodd" clip-rule="evenodd" d="M324.316 370.68C324.316 370.68 298.454 371.444 287.432 365.422L322.942 387.718L324.316 370.68Z" fill="#CF3E83"/>
<g id="Face color">
<path id="Face" d="M315.671 207.189C340.857 228.855 378.135 249.002 421.896 262.7C419.11 292.35 409.859 343.452 381.954 362.014C368.772 370.78 344.766 371.86 324.316 370.68L319.626 428.766L258.84 404.96C258.84 404.96 274.012 334.364 265.888 321.39C254.978 303.912 225.788 298.28 225.754 274.126C225.742 266.972 229.924 254.586 245.366 254.562C266.094 254.532 263.14 279.364 263.14 279.364C282.208 286.781 301.643 235.974 315.671 207.189V207.189Z" fill="#5E93D1"/>
</g>
<path id="Fill 9" fill-rule="evenodd" clip-rule="evenodd" d="M380.533 279.318L395.333 315.198L378.163 314.854L380.533 279.318Z" fill="#2437A8"/>
<path id="Fill 11" fill-rule="evenodd" clip-rule="evenodd" d="M364.777 280.874C364.407 288.042 360.193 293.626 355.361 293.348C350.529 293.07 346.911 287.034 347.279 279.866C347.649 272.698 351.865 267.112 356.695 267.39C361.527 267.67 365.147 273.706 364.777 280.874Z" fill="#1D1D23"/>
<path id="Fill 13" fill-rule="evenodd" clip-rule="evenodd" d="M410.15 279.729C409.78 286.897 405.566 292.481 400.734 292.203C395.902 291.925 392.284 285.889 392.654 278.721C393.024 271.553 397.238 265.967 402.07 266.247C406.902 266.525 410.52 272.561 410.15 279.729Z" fill="#1D1D23"/>
<path id="Stroke 15" d="M373.951 332.041C373.951 332.041 362.763 335.651 351.553 323.187" stroke="#24242B" stroke-width="3"/>
<path id="Fill 17" opacity="0.399019" fill-rule="evenodd" clip-rule="evenodd" d="M324.273 370.679C324.273 370.679 298.411 371.443 287.389 365.423L322.899 387.717L324.273 370.679Z" fill="black"/>
</g>
</g>
</svg>
