<svg width="530" height="558" viewBox="0 0 530 558" fill="none" xmlns="http://www.w3.org/2000/svg">
<g id="Girl / Head / 1">
<g id="Group 23">
<path id="Hair" d="M441.52 186.608C443.37 189.103 444.321 191.756 444.199 194.575C447.808 206.568 449.753 219.256 449.773 232.387C449.775 234.07 449.746 235.745 449.686 237.414L449.889 382.693L174.209 383.127L173.999 233.021L174.095 233.021C174.095 232.944 174.095 232.866 174.095 232.789C173.981 158.457 235.601 98.1107 311.729 97.9987C371.389 97.9125 422.253 134.847 441.52 186.608Z" fill="#19141E"/>
<path id="Fill 7" fill-rule="evenodd" clip-rule="evenodd" d="M334.038 368.302C334.038 368.302 308.176 369.066 297.154 363.044L332.664 385.34L334.038 368.302Z" fill="#CF3E83"/>
<g id="Face color">
<path id="Face" d="M278.465 277.562C293.252 276.375 384.304 266.908 434.356 210.854L434.601 210.92C434.601 210.92 435.819 334.3 391.681 359.64C377.941 367.52 354.479 369.48 334.041 368.3L329.341 426.38L262.601 398.92C262.601 398.92 269.001 334.84 271.781 310.24C258.361 298.06 235.521 292.42 235.479 271.74C235.461 264.6 239.639 252.2 255.079 252.18C275.819 252.16 272.861 276.98 272.861 276.98C274.727 277.707 276.597 277.876 278.465 277.562Z" fill="#5E93D1"/>
</g>
<path id="Fill 11" fill-rule="evenodd" clip-rule="evenodd" d="M390.257 276.939L405.057 312.819L387.885 312.475L390.257 276.939Z" fill="#2437A8"/>
<path id="Fill 13" fill-rule="evenodd" clip-rule="evenodd" d="M374.499 278.496C374.129 285.664 369.915 291.248 365.083 290.97C360.251 290.692 356.633 284.656 357.003 277.488C357.371 270.32 361.587 264.734 366.419 265.012C371.249 265.292 374.869 271.328 374.499 278.496Z" fill="#0D0B6D"/>
<path id="Fill 15" fill-rule="evenodd" clip-rule="evenodd" d="M419.872 277.351C419.504 284.519 415.288 290.103 410.456 289.825C405.626 289.547 402.006 283.511 402.376 276.343C402.746 269.175 406.96 263.589 411.792 263.869C416.624 264.147 420.242 270.183 419.872 277.351Z" fill="#0D0B6D"/>
<path id="Stroke 17" d="M383.673 329.662C383.673 329.662 372.485 333.272 361.275 320.808" stroke="#1C295E" stroke-width="3"/>
<path id="Fill 19" opacity="0.395159" fill-rule="evenodd" clip-rule="evenodd" d="M333.996 368.301C333.996 368.301 308.134 369.065 297.112 363.045L332.622 385.339L333.996 368.301Z" fill="black"/>
</g>
</g>
</svg>
