<svg width="618" height="704" viewBox="0 0 618 704" fill="none" xmlns="http://www.w3.org/2000/svg">
<g id="Girl / Body / 8">
<g id="Group 23">
<g id="Skin color">
<path id="Skin" fill-rule="evenodd" clip-rule="evenodd" d="M315.371 47.7355C312.014 44.772 309.832 43.2302 309.832 43.2302L236.216 39.4282C236.216 39.4282 242.486 55.8382 249.124 76.6182C262.246 117.698 293.372 126.93 320.498 126.884C345.83 126.844 354.438 102.818 337.972 74.9702C330.368 62.1056 321.136 52.8244 315.371 47.7355ZM84.2943 471.566L95.0482 516.393C95.0482 516.393 95.8762 526.593 95.3422 538.421C95.3182 538.956 95.2939 539.481 95.2701 539.999L95.27 540C94.7659 550.922 94.4279 558.245 99.5682 576.081C103.32 589.099 85.3982 582.681 81.2482 575.097C79.7163 572.298 78.9781 566.77 78.2109 561.024C76.8347 550.718 75.365 539.711 69.0522 542.497C59.2222 546.835 51.8602 575.321 49.4362 602.905C49.0542 607.239 45.3142 610.259 42.8462 611.147C38.8462 612.591 36.2102 594.899 36.2102 594.899C36.2102 594.899 33.3182 600.541 27.8602 597.181C25.9302 595.991 21.6102 583.573 21.6102 583.573C21.6102 583.573 17.7422 577.191 16.2482 570.493C13.6142 558.663 13.3402 537.403 15.1822 531.445C19.3734 517.893 27.4078 495.497 35.2877 482.709C34.9723 447.119 34.3885 307.225 44.347 281.411C55.777 251.783 76.463 212.061 76.463 212.061L137.817 253.083L104.909 306.373L84.2943 471.566ZM374.323 343.128C370.217 310.51 373.901 268.39 373.901 268.39L426.349 237.17L439.617 314.808L493.679 484.484C504.293 496.963 517.617 512.935 519.521 516.673C522.747 523.015 528.719 554.409 528.435 560.611C528.149 566.813 509.547 594.685 509.547 594.685C498.003 591.857 505.543 577.463 505.543 577.463C505.543 577.463 495.203 586.207 490.905 586.059C450.425 584.679 452.595 564.183 453.551 561.617C455.701 555.853 466.507 562.445 466.507 562.445C466.507 562.445 445.342 519.504 450.882 489.981C433.67 461.98 377.602 369.167 374.323 343.128Z" fill="#E576C6"/>
</g>
<path id="Stroke 6" opacity="0.146833" d="M474.773 506.195C474.773 506.195 480.453 527.653 499.947 534.339C506.765 536.677 505.061 564.277 521.771 560.975" stroke="black" stroke-width="3"/>
<g id="T-shirt">
<path id="T-shirt_2" fill-rule="evenodd" clip-rule="evenodd" d="M249.124 76.618C242.964 57.3339 237.121 41.8132 236.312 39.6786C215.307 39.587 193.171 42.8935 169.587 58.0732C137.597 78.6532 89.6168 143.329 55.2168 206.053L160.287 267.993L177.183 242.313C177.183 242.313 194.213 265.133 198.933 295.713C202.553 319.093 200.739 338.093 200.739 338.093H368.995L383.191 274.593L447.149 251.513C442.529 194.873 415.963 100.133 380.841 67.1932C362.393 49.8899 342.474 45.8732 310.485 43.7113C313.615 46.0719 327.375 57.0409 337.972 74.97C354.438 102.818 345.83 126.844 320.498 126.884C293.372 126.93 262.246 117.698 249.124 76.618ZM246.245 39.9459L249.69 40.1239C248.545 40.0591 247.397 39.9993 246.245 39.9459Z" fill="#72A065"/>
</g>
<path id="Stroke 15" opacity="0.204148" d="M369.805 339.37C376.221 257.884 418.631 238.654 386.631 147.268" stroke="black" stroke-width="4"/>
<path id="Path" opacity="0.195638" d="M317.436 44.2062C317.457 44.2231 317.477 44.2401 317.496 44.2572C322.474 48.7494 328.873 55.3018 333.515 61.3091C336.374 65.0084 339.022 68.8847 341.415 72.9339C359.165 102.953 349.588 130.838 320.505 130.884C284.187 130.945 257.292 115.333 245.314 77.835C242.425 68.7906 239.397 59.912 236.415 51.5778C235.371 48.6618 234.409 46.023 233.55 43.7084C233.249 42.8997 232.984 42.1896 232.756 41.5842C232.619 41.2229 232.374 39.7992 232.327 39.6766H236.311C237.402 39.6766 240.302 39.2449 240.688 39.9998C241.845 42.2671 242.893 45.9363 243.947 48.8828C246.958 57.2985 250.015 66.2624 252.935 75.4007C263.736 109.215 287.38 122.94 320.492 122.884C342.428 122.849 349.486 102.301 334.529 77.0051C332.308 73.2485 329.847 69.645 327.185 66.2011C322.851 60.5929 318.205 55.6716 313.564 51.4839C311.947 50.0246 310.451 48.7642 309.115 47.7079C308.416 47.1551 305.096 44.073 304.2 43.2806L317.436 44.2062Z" fill="black"/>
<path id="Stroke 21" opacity="0.204148" d="M220.323 189.268L181.349 248.318" stroke="black" stroke-width="4"/>
</g>
</g>
</svg>
