<svg width="618" height="704" viewBox="0 0 618 704" fill="none" xmlns="http://www.w3.org/2000/svg">
<g id="Girl / Body / 5">
<g id="Group 19">
<g id="Skin color">
<path id="Skin" d="M485.137 478.017C495.625 490.361 508.399 505.707 510.261 509.363C513.489 515.703 519.459 547.097 519.175 553.299C518.889 559.501 500.287 587.373 500.287 587.373C488.745 584.545 496.283 570.151 496.283 570.151C496.283 570.151 485.943 578.895 481.647 578.747C441.167 577.367 443.335 556.871 444.291 554.305C446.441 548.541 457.249 555.133 457.249 555.133C457.249 555.133 436.472 512.981 441.475 483.489L440.309 483.635L376.567 382.085L372.149 342.515L198.507 339.955C198.507 339.955 200.007 323.775 196.309 300.395C191.489 269.815 162.087 213.015 162.087 213.015L116.649 281.695L83.5996 460.89C83.7746 460.78 83.9498 460.667 84.1252 460.553L99.1752 508.683C99.1752 508.683 100.689 528.805 100.957 540.643C101.225 552.481 101.083 549.657 107.717 567.931C112.339 580.665 94.0252 575.471 89.3732 568.187C84.5752 560.675 84.5172 531.493 75.0032 536.485C65.4892 541.477 60.0672 570.397 59.5112 598.081C59.4232 602.429 55.8972 603.695 53.4952 604.751C49.5992 606.461 45.7752 590.987 45.7752 590.987C45.7752 590.987 43.2712 596.811 37.5992 593.827C35.5912 592.771 30.4412 580.673 30.4412 580.673C30.4412 580.673 26.1532 574.567 24.2112 567.983C20.7832 556.359 19.0752 535.167 20.5092 529.099C23.9047 514.75 30.796 490.592 38.1054 477.591C37.9713 474.69 31.4107 329.035 61.4694 243.755C88.0274 168.415 128.489 86.5954 166.327 62.7554C205.247 38.2354 240.309 44.7154 272.867 46.4154C329.149 49.3754 356.989 48.7754 382.149 71.8754C434.629 120.055 416.469 310.415 416.469 310.415L485.947 477.915L485.137 478.017Z" fill="#E576C6"/>
</g>
<path id="Stroke 4" opacity="0.152762" d="M465.514 498.883C465.514 498.883 471.194 520.339 490.688 527.027C497.504 529.365 495.802 556.963 512.51 553.663" stroke="black" stroke-width="3"/>
<path id="Stroke 11" d="M238.696 44.5234L244.693 44.704C244.693 44.708 244.693 44.708 244.692 44.7899C244.683 45.2986 244.695 45.9031 244.741 46.4477C244.763 46.705 244.791 46.9253 244.822 47.0911C245.55 50.9327 249.018 78.5195 255.307 130.435L249.35 131.156C243.115 79.6793 239.614 51.8355 238.927 48.2077C238.854 47.8192 238.8 47.4017 238.762 46.9541C238.696 46.1727 238.681 45.3831 238.693 44.6891C238.695 44.5644 238.695 44.5644 238.696 44.5234Z" fill="#2B2B38"/>
<path id="Path" d="M350.97 83.8199C360.313 96.0241 368.686 109.085 375.974 122.146C378.525 126.718 380.76 130.965 382.663 134.781C383.33 136.119 383.909 137.31 384.398 138.338C384.694 138.961 384.895 139.394 385 139.626L379.609 142.182C379.518 141.982 379.332 141.58 379.051 140.989C378.579 139.996 378.017 138.841 377.367 137.538C375.505 133.804 373.315 129.64 370.811 125.154C363.657 112.333 355.439 99.5129 346.289 87.5611C336.205 74.3893 325.598 63.0949 314.568 54.2508L307 48.1821L316.6 48.8329C317.885 48.92 318.787 49.5647 319.624 50.5997C330.563 59.5938 341.03 70.8356 350.97 83.8199Z" fill="#2B2B38"/>
<path id="Stroke 15" opacity="0.148693" d="M162.088 213.015L186.476 174.685" stroke="black" stroke-width="3"/>
<g id="T-shirt">
<path id="T-shirt_2" d="M371.028 342.495L198.508 339.955C198.508 339.955 200.242 323.737 196.31 300.395C192.078 275.287 173.026 238.399 169.85 228.793C169.85 228.793 172.786 238.143 183.604 225.659C199.094 207.785 252.328 124.795 252.328 124.795C252.328 124.795 302.57 175.573 342.89 174.015C370.682 172.941 380.63 129.915 380.63 129.915C425.17 226.715 376.014 214.685 371.028 342.495Z" fill="#FCBDA4"/>
</g>
</g>
</g>
</svg>
