<svg width="618" height="704" viewBox="0 0 618 704" fill="none" xmlns="http://www.w3.org/2000/svg">
<g id="Girl / Body / 4">
<g id="Group 39">
<g id="Skin color">
<path id="Skin" fill-rule="evenodd" clip-rule="evenodd" d="M336.712 78.3774C324.68 58.0214 308.572 46.6374 308.572 46.6374L234.956 43.0854C234.956 43.0854 241.226 59.2454 247.864 80.0254C260.986 121.105 292.114 130.337 319.236 130.291C344.57 130.251 353.178 106.225 336.712 78.3774ZM518.064 197.721C516.743 184.785 516.227 169.309 520.338 163.766C527.88 153.594 565.17 122.844 565.17 122.844L567.158 148.505L575.985 118.379C575.985 118.379 585.76 121.277 595.223 126.228C602.044 129.797 608.583 134.636 612.688 137.675C613.664 138.397 614.503 139.018 615.175 139.495C620.189 143.059 605.613 197.895 595.223 207.763C588.089 214.536 567.054 219.788 554.571 222.415C530.73 260.917 467.19 357.116 432.087 349.18C395.619 340.936 361.785 213.46 361.785 213.46L423.295 183.496L450.077 266.042L518.064 197.721ZM100.09 477.085L115.062 515.373C115.062 515.373 117.336 525.23 118.607 536.88C118.664 537.403 118.719 537.918 118.774 538.424L118.775 538.435C119.935 549.192 120.713 556.407 128.078 573.096C133.454 585.276 116.056 581.638 111.123 574.834C109.302 572.322 107.804 567.025 106.246 561.519C103.452 551.639 100.466 541.086 95.0889 544.741C86.7145 550.433 84.1911 579.385 86.0645 606.725C86.3581 611.019 83.3766 614.525 81.2447 615.76C77.7865 617.762 72.7402 600.843 72.7402 600.843C72.7402 600.843 70.9251 606.788 65.4184 604.305C63.4689 603.426 57.661 591.915 57.661 591.915C57.661 591.915 53.164 586.243 50.7988 579.909C46.6236 568.726 43.2149 547.97 44.0186 541.871C45.9168 527.498 50.1882 503.238 55.803 489.798C52.4883 455.264 39.7812 316.615 46.791 290.277C54.8136 260.14 70.5337 219.302 70.5337 219.302L130.854 254.779L104.995 309.984L100.09 477.085Z" fill="#E576C6"/>
</g>
<path id="Path" fill-rule="evenodd" clip-rule="evenodd" d="M596.379 127.005C590.824 123.82 585.538 121.437 582.947 122.041C578.414 123.099 586.711 134.987 592.762 142.814L592.694 143.113C582.926 147.043 570.126 152.87 568.068 157.136C566.631 160.115 572.244 161.089 579.198 161.22C572.799 164.289 567.215 167.606 565.916 170.3C564.252 173.75 572.042 174.51 580.422 174.388C573.022 177.764 566.089 181.601 564.621 184.644C562.75 188.524 572.841 189.002 582.275 188.648L579.85 199.247C579.108 202.497 576.148 204.753 572.816 204.607L536.612 203.023C532.304 202.835 529.22 198.789 530.182 194.585L555.834 82.4692C556.578 79.2192 559.536 76.9632 562.866 77.1092L599.072 78.6912C603.38 78.8812 606.462 82.9272 605.502 87.1312L596.379 127.005Z" fill="#020101"/>
<g id="Phone color">
<path id="Phone" d="M603.76 131.552C596.078 126.542 586.694 121.167 582.947 122.041C578.374 123.108 586.859 135.198 592.922 143.021C583.127 146.952 570.142 152.837 568.068 157.136C566.631 160.115 572.244 161.088 579.198 161.22C572.799 164.289 567.215 167.606 565.916 170.3C564.252 173.75 572.043 174.51 580.422 174.388C573.022 177.764 566.089 181.601 564.621 184.644C562.144 189.782 580.64 188.953 590.815 188.131L588.188 199.61C587.446 202.86 584.486 205.116 581.154 204.97L544.95 203.388C540.642 203.2 537.558 199.152 538.52 194.948L564.172 82.8323C564.916 79.5823 567.874 77.3283 571.204 77.4723L607.41 79.0543C611.718 79.2443 614.8 83.2923 613.84 87.4943L603.76 131.552Z" fill="#5E93D1"/>
</g>
<path id="Fill 20" fill-rule="evenodd" clip-rule="evenodd" d="M573.508 92.3267C572.664 96.0007 570.498 98.6107 568.668 98.1527C566.84 97.6947 566.04 94.3447 566.882 90.6707C567.726 86.9947 569.894 84.3867 571.722 84.8447C573.552 85.3027 574.352 88.6527 573.508 92.3267Z" fill="#020101"/>
<path id="Fill 22" fill-rule="evenodd" clip-rule="evenodd" d="M569.273 111.341C568.429 115.015 566.263 117.625 564.433 117.167C562.603 116.709 561.805 113.359 562.647 109.685C563.491 106.009 565.657 103.401 567.487 103.859C569.317 104.317 570.117 107.667 569.273 111.341Z" fill="#020101"/>
<g id="T-shirt color">
<path id="T-Shirt" d="M259.218 44.2561L234.956 43.0854C234.956 43.0854 241.226 59.2454 247.864 80.0254C260.986 121.105 292.114 130.337 319.236 130.291C344.57 130.251 353.178 106.225 336.712 78.3774C326.114 60.4481 312.355 49.4792 309.225 47.1187C341.214 49.2814 361.134 53.2977 379.58 70.5994C414.702 103.541 443.142 164.269 454.836 224.265L390.654 252.907L367.794 341.241L199.824 338.681C199.824 338.681 201.294 322.501 197.672 299.121C192.954 268.541 175.922 245.721 175.922 245.721L159.028 271.401L53.9578 209.461C88.3558 146.735 136.336 82.0594 168.326 61.4794C190.925 46.9346 211.617 43.2838 231.836 43.0854C241.03 42.9951 250.261 43.6206 259.218 44.2561Z" fill="#5E93D1"/>
</g>
<path id="Stroke 31" opacity="0.202962" d="M368.545 342.777C374.961 261.291 417.371 242.061 385.371 150.675" stroke="black" stroke-width="3"/>
<path id="Stroke 35" opacity="0.202055" d="M308.572 46.6374C308.572 46.6374 324.68 58.0214 336.712 78.3774C353.178 106.225 344.57 130.251 319.236 130.291C292.114 130.337 260.986 121.105 247.864 80.0254C241.226 59.2454 234.956 43.0854 234.956 43.0854" stroke="black" stroke-width="3"/>
<path id="Stroke 37" opacity="0.202962" d="M219.062 188.676L180.088 247.726" stroke="black" stroke-width="3"/>
</g>
</g>
</svg>
