<svg width="406" height="386" viewBox="0 0 406 386" fill="none" xmlns="http://www.w3.org/2000/svg">
<g id="Man / Head / 3">
<g id="Group 21">
<g id="Face color">
<path id="Face" d="M217.11 383.69L215.398 324.966C215.398 324.966 287.211 330.648 302.574 322.718C302.574 322.718 319.134 236.223 298.502 171.287L146.957 153.673L136.175 240.266C131.07 225.303 91.2253 208.158 80.2111 229.584C56.3467 276.011 141.681 307.271 141.681 307.271L133.016 384.397" fill="#5E93D1"/>
</g>
<path id="Fill 4" opacity="0.399344" fill-rule="evenodd" clip-rule="evenodd" d="M215.398 324.966L166.975 314.648L215.166 346.998L215.398 324.966Z" fill="black"/>
<path id="Fill 6" fill-rule="evenodd" clip-rule="evenodd" d="M255.343 229.001L272.077 269.653L252.022 269.906L255.343 229.001Z" fill="#2437A8"/>
<path id="Fill 8" fill-rule="evenodd" clip-rule="evenodd" d="M236.263 240.553C237.261 246.028 233.601 251.268 228.093 252.257C222.583 253.248 217.311 249.612 216.314 244.139C215.317 238.665 218.976 233.424 224.484 232.434C229.994 231.445 235.268 235.079 236.263 240.553Z" fill="#0D0B6D"/>
<path id="Fill 10" fill-rule="evenodd" clip-rule="evenodd" d="M288.894 240.553C289.891 246.028 286.232 251.268 280.724 252.257C275.214 253.248 269.942 249.612 268.945 244.139C267.947 238.665 271.607 233.424 277.115 232.434C282.625 231.445 287.899 235.079 288.894 240.553Z" fill="#0D0B6D"/>
<g id="Group 15">
<path id="Fill 12" fill-rule="evenodd" clip-rule="evenodd" d="M234.535 281.417C234.535 281.417 241.544 292.711 255.428 291.754L234.535 281.417Z" fill="white"/>
<path id="Stroke 14" d="M234.535 281.417C234.535 281.417 241.544 292.711 255.428 291.754" stroke="#252535" stroke-width="4"/>
</g>
<path id="Hair" d="M107.533 221.758C100.804 196.891 76.4503 105.102 79.3192 89.4325C82.6402 71.2724 95.3626 48.9793 160.733 25.5969C216.119 5.78613 247.362 20.1314 256.826 32.3376C271.226 50.9108 298.502 171.289 298.502 171.289C298.502 171.289 275.933 187.247 195.902 184.495C195.902 184.495 206.981 232.37 161.565 229.619C161.565 229.619 166.432 245.742 144.454 250.813C132.395 232.18 116.391 224.649 107.533 221.758Z" fill="#19141E"/>
</g>
</g>
</svg>
