<svg width="406" height="386" viewBox="0 0 406 386" fill="none" xmlns="http://www.w3.org/2000/svg">
<g id="Man / Head / 5">
<g id="Group 23">
<g id="Face color">
<path id="Face" d="M216.68 383.516L214.974 324.912C214.974 324.912 286.57 330.582 301.884 322.669C301.884 322.669 320.603 226.74 298.277 173.617L297.825 171.549L146.741 153.968L139.877 242.461C134.788 227.531 91.1787 208.342 80.1998 229.725C56.4062 276.056 141.481 307.253 141.481 307.253L132.842 384.221" fill="#CE3D29"/>
</g>
<path id="Fill 4" opacity="0.403344" fill-rule="evenodd" clip-rule="evenodd" d="M214.974 324.911L166.696 314.615L214.743 346.898L214.974 324.911Z" fill="black"/>
<path id="Fill 6" fill-rule="evenodd" clip-rule="evenodd" d="M254.797 229.143L271.479 269.712L251.486 269.965L254.797 229.143Z" fill="#405FD3"/>
<path id="Fill 8" fill-rule="evenodd" clip-rule="evenodd" d="M235.776 240.671C236.77 246.135 233.122 251.364 227.631 252.351C222.137 253.34 216.88 249.713 215.887 244.25C214.893 238.787 218.541 233.559 224.032 232.57C229.526 231.581 234.783 235.208 235.776 240.671Z" fill="#0D0B6D"/>
<path id="Fill 10" fill-rule="evenodd" clip-rule="evenodd" d="M288.246 240.671C289.24 246.135 285.592 251.364 280.101 252.351C274.608 253.34 269.35 249.713 268.358 244.25C267.363 238.787 271.012 233.559 276.503 232.57C281.996 231.581 287.254 235.208 288.246 240.671Z" fill="#0D0B6D"/>
<path id="Hair" d="M154.228 264.274C153.95 263.594 153.64 262.89 153.298 262.162C141.764 237.613 123.872 227.298 112.121 223.017C105.699 213.568 100.636 203 98.955 191.871C93.6253 156.656 102.944 124.471 123.736 115.247C144.782 105.909 194.633 110.59 250.61 110.59C317.82 110.59 321.522 104.001 321.522 104.001C321.522 104.001 380.768 187.145 271.385 184.728C214.065 183.461 181.447 184.89 181.447 184.89L154.228 264.274Z" fill="#19141E"/>
<g id="Group 22">
<path id="Fill 19" fill-rule="evenodd" clip-rule="evenodd" d="M241.905 295.811C241.905 295.811 252.198 304.211 264.975 298.828L241.905 295.811Z" fill="white"/>
<path id="Stroke 21" d="M241.905 295.811C241.905 295.811 252.198 304.211 264.975 298.828" stroke="#252535" stroke-width="4"/>
<path id="Fill 17" fill-rule="evenodd" clip-rule="evenodd" d="M224.528 287.046C224.528 287.046 230.094 272.573 256.459 273.658C282.824 274.741 286.094 292.675 286.094 292.675L224.528 287.046Z" fill="#19141E"/>
</g>
</g>
</g>
</svg>
